<svg width="184" height="59" viewBox="0 0 184 59" fill="none" xmlns="http://www.w3.org/2000/svg">
<rect width="184" height="59" rx="15" fill="black"/>
<path d="M9 15.2222C9 14.6329 9.24144 14.0676 9.67121 13.6509C10.101 13.2341 10.6839 13 11.2917 13H19.3125C19.4948 13 19.6697 13.0702 19.7986 13.1953C19.9276 13.3203 20 13.4899 20 13.6667V24.7778C20 24.9546 19.9276 25.1242 19.7986 25.2492C19.6697 25.3742 19.4948 25.4444 19.3125 25.4444H17.0208C16.8385 25.4444 16.6636 25.3742 16.5347 25.2492C16.4058 25.1242 16.3333 24.9546 16.3333 24.7778C16.3333 24.601 16.4058 24.4314 16.5347 24.3064C16.6636 24.1813 16.8385 24.1111 17.0208 24.1111H18.625V22.3333H11.2917C11.1112 22.3334 10.9347 22.3851 10.7844 22.482C10.634 22.5789 10.5165 22.7166 10.4466 22.878C10.3767 23.0394 10.3575 23.2172 10.3914 23.3891C10.4253 23.561 10.5108 23.7194 10.6372 23.8444C10.7004 23.907 10.7502 23.981 10.7839 24.0623C10.8176 24.1436 10.8345 24.2304 10.8336 24.318C10.8326 24.4056 10.8139 24.4921 10.7785 24.5727C10.7431 24.6533 10.6916 24.7263 10.6271 24.7876C10.5626 24.8488 10.4862 24.8972 10.4024 24.9299C10.3186 24.9625 10.229 24.9789 10.1387 24.978C10.0484 24.9771 9.95915 24.9589 9.87607 24.9246C9.79299 24.8902 9.7177 24.8403 9.6545 24.7778C9.2344 24.3626 8.99935 23.8039 9 23.2222V15.2222ZM18.625 14.3333H11.2917C11.0486 14.3333 10.8154 14.427 10.6435 14.5937C10.4716 14.7604 10.375 14.9865 10.375 15.2222V21.1849C10.6641 21.0624 10.9762 20.9994 11.2917 21H18.625V14.3333ZM11.75 23.8889C11.75 23.83 11.7741 23.7734 11.8171 23.7318C11.8601 23.6901 11.9184 23.6667 11.9792 23.6667H15.1875C15.2483 23.6667 15.3066 23.6901 15.3495 23.7318C15.3925 23.7734 15.4167 23.83 15.4167 23.8889V26.7778C15.4167 26.819 15.4048 26.8595 15.3824 26.8946C15.3601 26.9297 15.3281 26.9581 15.29 26.9765C15.2519 26.995 15.2093 27.0028 15.1669 26.9991C15.1245 26.9954 15.084 26.9803 15.05 26.9556L13.7208 25.9893C13.6812 25.9603 13.633 25.9447 13.5833 25.9447C13.5337 25.9447 13.4854 25.9603 13.4458 25.9893L12.1167 26.9556C12.0826 26.9803 12.0421 26.9954 11.9997 26.9991C11.9574 27.0028 11.9147 26.995 11.8767 26.9765C11.8386 26.9581 11.8066 26.9297 11.7842 26.8946C11.7619 26.8595 11.75 26.819 11.75 26.7778V23.8889Z" fill="#8B949E"/>
<path d="M25.5859 15.9541H28.2764C30.3906 15.9541 31.6357 17.2139 31.6357 19.4502C31.6357 21.6865 30.3906 23 28.2764 23H25.5859V15.9541ZM27.0605 17.1699V21.7793H28.1006C29.4189 21.7793 30.1318 20.9785 30.1318 19.4551C30.1318 17.9805 29.3994 17.1699 28.1006 17.1699H27.0605ZM34.458 22.0527C35.0781 22.0527 35.5908 21.6475 35.5908 21.0811V20.7002L34.4873 20.7686C33.9551 20.8076 33.6523 21.0469 33.6523 21.418C33.6523 21.8086 33.9746 22.0527 34.458 22.0527ZM33.9893 23.083C32.9932 23.083 32.2363 22.4385 32.2363 21.4961C32.2363 20.5439 32.9688 19.9922 34.2725 19.9141L35.5908 19.8359V19.4893C35.5908 19.001 35.249 18.7178 34.7119 18.7178C34.1797 18.7178 33.8428 18.9814 33.7744 19.3672H32.4707C32.5244 18.3516 33.3887 17.6533 34.7754 17.6533C36.1182 17.6533 36.9922 18.3467 36.9922 19.4014V23H35.6152V22.1992H35.5859C35.293 22.7559 34.6436 23.083 33.9893 23.083ZM38.2959 16.5596H39.7217V17.7656H40.6885V18.8398H39.7217V21.3447C39.7217 21.7451 39.917 21.9355 40.3369 21.9355C40.4639 21.9355 40.5957 21.9258 40.6836 21.9111V22.9609C40.5371 22.9951 40.293 23.0195 40.0049 23.0195C38.7744 23.0195 38.2959 22.6094 38.2959 21.5889V18.8398H37.5586V17.7656H38.2959V16.5596ZM43.4424 22.0527C44.0625 22.0527 44.5752 21.6475 44.5752 21.0811V20.7002L43.4717 20.7686C42.9395 20.8076 42.6367 21.0469 42.6367 21.418C42.6367 21.8086 42.959 22.0527 43.4424 22.0527ZM42.9736 23.083C41.9775 23.083 41.2207 22.4385 41.2207 21.4961C41.2207 20.5439 41.9531 19.9922 43.2568 19.9141L44.5752 19.8359V19.4893C44.5752 19.001 44.2334 18.7178 43.6963 18.7178C43.1641 18.7178 42.8271 18.9814 42.7588 19.3672H41.4551C41.5088 18.3516 42.373 17.6533 43.7598 17.6533C45.1025 17.6533 45.9766 18.3467 45.9766 19.4014V23H44.5996V22.1992H44.5703C44.2773 22.7559 43.6279 23.083 42.9736 23.083ZM46.8115 19.3037C46.8115 18.3076 47.6758 17.6533 49.0186 17.6533C50.332 17.6533 51.1865 18.3174 51.2061 19.333H49.8926C49.8633 18.9131 49.5264 18.6543 48.999 18.6543C48.5059 18.6543 48.1836 18.8789 48.1836 19.2158C48.1836 19.4746 48.4082 19.6504 48.8672 19.7578L49.8682 19.9727C50.918 20.207 51.3428 20.6221 51.3428 21.4033C51.3428 22.4336 50.3955 23.1123 49.0137 23.1123C47.6172 23.1123 46.7578 22.4385 46.6797 21.418H48.0713C48.1396 21.8574 48.4863 22.1113 49.0527 22.1113C49.5947 22.1113 49.9219 21.8965 49.9219 21.5547C49.9219 21.291 49.7461 21.1445 49.2773 21.0322L48.3105 20.8174C47.3193 20.5928 46.8115 20.0752 46.8115 19.3037ZM54.4043 18.708C53.7793 18.708 53.3301 19.1816 53.2812 19.8359H55.5029C55.4736 19.167 55.0391 18.708 54.4043 18.708ZM55.5225 21.3984H56.8311C56.6748 22.4238 55.7373 23.1123 54.4434 23.1123C52.832 23.1123 51.8652 22.082 51.8652 20.4072C51.8652 18.7373 52.8418 17.6533 54.3896 17.6533C55.9131 17.6533 56.875 18.6836 56.875 20.2754V20.71H53.2666V20.7979C53.2666 21.5449 53.7402 22.0576 54.4678 22.0576C54.9902 22.0576 55.3906 21.7988 55.5225 21.3984ZM57.9932 16.5596H59.4189V17.7656H60.3857V18.8398H59.4189V21.3447C59.4189 21.7451 59.6143 21.9355 60.0342 21.9355C60.1611 21.9355 60.293 21.9258 60.3809 21.9111V22.9609C60.2344 22.9951 59.9902 23.0195 59.7021 23.0195C58.4717 23.0195 57.9932 22.6094 57.9932 21.5889V18.8398H57.2559V17.7656H57.9932V16.5596Z" fill="#58A6FF"/>
<rect x="80.5" y="12.5" width="33" height="14" rx="7" stroke="#30363D"/>
<path d="M87.5195 16.3633H89.6328C90.7266 16.3633 91.4883 17.1172 91.4883 18.2148C91.4883 19.3164 90.7109 20.0742 89.6055 20.0742H88.3945V22H87.5195V16.3633ZM88.3945 17.1016V19.3398H89.3984C90.1602 19.3398 90.5938 18.9297 90.5938 18.2188C90.5938 17.5078 90.1602 17.1016 89.4023 17.1016H88.3945ZM95.6758 17.8906V22H94.8672V21.3047H94.8477C94.6211 21.7969 94.2031 22.0742 93.5742 22.0742C92.6797 22.0742 92.1328 21.4922 92.1328 20.5508V17.8906H92.9766V20.3867C92.9766 21.0117 93.2734 21.3477 93.8555 21.3477C94.4648 21.3477 94.832 20.9258 94.832 20.2852V17.8906H95.6758ZM98.6992 22.0703C98.0977 22.0703 97.6328 21.7773 97.3789 21.3008H97.3633V22H96.543V16.3633H97.3867V18.5898H97.4062C97.6523 18.1133 98.1211 17.8242 98.7031 17.8242C99.7383 17.8242 100.414 18.6445 100.414 19.9453C100.414 21.25 99.7422 22.0703 98.6992 22.0703ZM98.4727 18.5352C97.832 18.5352 97.3828 19.0977 97.3828 19.9453C97.3828 20.8008 97.832 21.3555 98.4727 21.3555C99.1367 21.3555 99.5469 20.8164 99.5469 19.9453C99.5469 19.082 99.1367 18.5352 98.4727 18.5352ZM101.105 22V16.3633H101.949V22H101.105ZM102.844 22V17.8906H103.688V22H102.844ZM103.266 17.2891C102.996 17.2891 102.777 17.0742 102.777 16.8086C102.777 16.5391 102.996 16.3242 103.266 16.3242C103.539 16.3242 103.758 16.5391 103.758 16.8086C103.758 17.0742 103.539 17.2891 103.266 17.2891ZM108.078 19.3047H107.273C107.188 18.8672 106.859 18.5195 106.309 18.5195C105.656 18.5195 105.227 19.0625 105.227 19.9453C105.227 20.8477 105.66 21.3711 106.316 21.3711C106.836 21.3711 107.176 21.0859 107.273 20.6094H108.086C107.996 21.4844 107.297 22.0781 106.309 22.0781C105.133 22.0781 104.367 21.2734 104.367 19.9453C104.367 18.6406 105.133 17.8164 106.301 17.8164C107.359 17.8164 108.004 18.4961 108.078 19.3047Z" fill="#8B949E"/>
<path d="M166 24.5C165.735 24.5 165.48 24.3946 165.293 24.2071C165.105 24.0196 165 23.7652 165 23.5C165 23.2348 165.105 22.9804 165.293 22.7929C165.48 22.6054 165.735 22.5 166 22.5C166.265 22.5 166.52 22.6054 166.707 22.7929C166.895 22.9804 167 23.2348 167 23.5C167 23.7652 166.895 24.0196 166.707 24.2071C166.52 24.3946 166.265 24.5 166 24.5ZM166 20.5C165.735 20.5 165.48 20.3946 165.293 20.2071C165.105 20.0196 165 19.7652 165 19.5C165 19.2348 165.105 18.9804 165.293 18.7929C165.48 18.6054 165.735 18.5 166 18.5C166.265 18.5 166.52 18.6054 166.707 18.7929C166.895 18.9804 167 19.2348 167 19.5C167 19.7652 166.895 20.0196 166.707 20.2071C166.52 20.3946 166.265 20.5 166 20.5ZM162 24.5C161.735 24.5 161.48 24.3946 161.293 24.2071C161.105 24.0196 161 23.7652 161 23.5C161 23.2348 161.105 22.9804 161.293 22.7929C161.48 22.6054 161.735 22.5 162 22.5C162.265 22.5 162.52 22.6054 162.707 22.7929C162.895 22.9804 163 23.2348 163 23.5C163 23.7652 162.895 24.0196 162.707 24.2071C162.52 24.3946 162.265 24.5 162 24.5ZM167 15.5C167 15.7652 166.895 16.0196 166.707 16.2071C166.52 16.3946 166.265 16.5 166 16.5C165.735 16.5 165.48 16.3946 165.293 16.2071C165.105 16.0196 165 15.7652 165 15.5C165 15.2348 165.105 14.9804 165.293 14.7929C165.48 14.6054 165.735 14.5 166 14.5C166.265 14.5 166.52 14.6054 166.707 14.7929C166.895 14.9804 167 15.2348 167 15.5ZM163 19.5C163 19.7652 162.895 20.0196 162.707 20.2071C162.52 20.3946 162.265 20.5 162 20.5C161.735 20.5 161.48 20.3946 161.293 20.2071C161.105 20.0196 161 19.7652 161 19.5C161 19.2348 161.105 18.9804 161.293 18.7929C161.48 18.6054 161.735 18.5 162 18.5C162.265 18.5 162.52 18.6054 162.707 18.7929C162.895 18.9804 163 19.2348 163 19.5ZM162 16.5C161.735 16.5 161.48 16.3946 161.293 16.2071C161.105 16.0196 161 15.7652 161 15.5C161 15.2348 161.105 14.9804 161.293 14.7929C161.48 14.6054 161.735 14.5 162 14.5C162.265 14.5 162.52 14.6054 162.707 14.7929C162.895 14.9804 163 15.2348 163 15.5C163 15.7652 162.895 16.0196 162.707 16.2071C162.52 16.3946 162.265 16.5 162 16.5Z" fill="#8B949E"/>
<path d="M23.4102 38.2725H24.9189C25.7129 38.2725 26.2725 38.8291 26.2725 39.6289C26.2725 40.4316 25.707 40.9912 24.9131 40.9912H23.9375V42.5H23.4102V38.2725ZM23.9375 38.7412V40.5225H24.7812C25.3848 40.5225 25.7305 40.1914 25.7305 39.6289C25.7305 39.0693 25.3877 38.7412 24.7812 38.7412H23.9375ZM27.0518 43.6396C26.9902 43.6396 26.8877 43.6338 26.832 43.6221V43.1943C26.8877 43.2061 26.9668 43.209 27.0312 43.209C27.3154 43.209 27.4736 43.0713 27.5908 42.7168L27.6611 42.5029L26.5361 39.4531H27.0811L27.9248 41.9902H27.9336L28.7773 39.4531H29.3135L28.1152 42.7139C27.8545 43.4258 27.6025 43.6396 27.0518 43.6396ZM29.8818 38.7178H30.3916V39.4531H30.9834V39.8721H30.3916V41.6826C30.3916 41.9609 30.5088 42.0869 30.7695 42.0869C30.8281 42.0869 30.9453 42.0781 30.9805 42.0723V42.5C30.9189 42.5146 30.7783 42.5234 30.6582 42.5234C30.0986 42.5234 29.8818 42.2949 29.8818 41.709V39.8721H29.4277V39.4531H29.8818V38.7178ZM31.5547 42.5V38.2725H32.0645V39.9395H32.0762C32.2461 39.5996 32.5801 39.4004 33.043 39.4004C33.7109 39.4004 34.1152 39.8516 34.1152 40.5312V42.5H33.6055V40.625C33.6055 40.1416 33.3623 39.8516 32.8848 39.8516C32.3779 39.8516 32.0645 40.1973 32.0645 40.7246V42.5H31.5547ZM36.0254 42.5527C35.1816 42.5527 34.6133 41.9463 34.6133 40.9766C34.6133 40.0039 35.1816 39.4004 36.0254 39.4004C36.8662 39.4004 37.4346 40.0039 37.4346 40.9766C37.4346 41.9463 36.8662 42.5527 36.0254 42.5527ZM36.0254 42.1045C36.5645 42.1045 36.916 41.6943 36.916 40.9766C36.916 40.2588 36.5645 39.8486 36.0254 39.8486C35.4863 39.8486 35.1318 40.2588 35.1318 40.9766C35.1318 41.6943 35.4863 42.1045 36.0254 42.1045ZM37.9502 42.5V39.4531H38.4307V39.9395H38.4424C38.6123 39.6113 38.9375 39.4004 39.4092 39.4004C40.0771 39.4004 40.4639 39.8311 40.4639 40.5225V42.5H39.9541V40.6133C39.9541 40.1211 39.7227 39.8516 39.2539 39.8516C38.7734 39.8516 38.46 40.1914 38.46 40.707V42.5H37.9502Z" fill="#8B949E"/>
<path d="M11 41C11 38.5147 13.0147 36.5 15.5 36.5C17.9853 36.5 20 38.5147 20 41C20 43.4853 17.9853 45.5 15.5 45.5C13.0147 45.5 11 43.4853 11 41Z" fill="#3EBE5E"/>
<path d="M11.5 41C11.5 38.7909 13.2909 37 15.5 37C17.7091 37 19.5 38.7909 19.5 41C19.5 43.2091 17.7091 45 15.5 45C13.2909 45 11.5 43.2091 11.5 41Z" stroke="white" stroke-opacity="0.2"/>
<path d="M96.9375 41.6222V42.2493C96.9375 42.545 97.1615 42.785 97.4375 42.785H100.437C100.57 42.785 100.697 42.7286 100.791 42.6281C100.885 42.5277 100.937 42.3914 100.937 42.2493V41.6222C100.604 41.4958 100.323 41.2472 100.144 40.9202C99.9646 40.5932 99.8993 40.2089 99.9591 39.8353C100.019 39.4617 100.2 39.1227 100.471 38.8784C100.741 38.634 101.084 38.5 101.437 38.5C101.791 38.5 102.134 38.634 102.404 38.8784C102.675 39.1227 102.856 39.4617 102.916 39.8353C102.976 40.2089 102.91 40.5932 102.731 40.9202C102.552 41.2472 102.271 41.4958 101.937 41.6222V42.2493C101.937 42.6755 101.779 43.0843 101.498 43.3857C101.217 43.6871 100.835 43.8564 100.437 43.8564H99.4375V45.3763C99.7713 45.5027 100.053 45.7514 100.232 46.0786C100.411 46.4057 100.476 46.7901 100.417 47.164C100.357 47.5378 100.175 47.8769 99.9048 48.1214C99.6341 48.3659 99.2915 48.5 98.9375 48.5C98.5835 48.5 98.2409 48.3659 97.9702 48.1214C97.6995 47.8769 97.5183 47.5378 97.4584 47.164C97.3986 46.7901 97.464 46.4057 97.6432 46.0786C97.8224 45.7514 98.1037 45.5027 98.4375 45.3763V43.8564H97.4375C97.0397 43.8564 96.6581 43.6871 96.3768 43.3857C96.0955 43.0843 95.9375 42.6755 95.9375 42.2493V41.6222C95.6039 41.4958 95.3227 41.2472 95.1437 40.9202C94.9646 40.5932 94.8993 40.2089 94.9591 39.8353C95.0189 39.4617 95.2001 39.1227 95.4707 38.8784C95.7412 38.634 96.0837 38.5 96.4375 38.5C96.7913 38.5 97.1338 38.634 97.4043 38.8784C97.6749 39.1227 97.8561 39.4617 97.9159 39.8353C97.9757 40.2089 97.9104 40.5932 97.7313 40.9202C97.5523 41.2472 97.2711 41.4958 96.9375 41.6222ZM96.9375 40.1066C96.9375 39.9645 96.8848 39.8282 96.7911 39.7278C96.6973 39.6273 96.5701 39.5709 96.4375 39.5709C96.3049 39.5709 96.1777 39.6273 96.0839 39.7278C95.9902 39.8282 95.9375 39.9645 95.9375 40.1066C95.9375 40.2487 95.9902 40.3849 96.0839 40.4854C96.1777 40.5858 96.3049 40.6423 96.4375 40.6423C96.5701 40.6423 96.6973 40.5858 96.7911 40.4854C96.8848 40.3849 96.9375 40.2487 96.9375 40.1066ZM101.437 40.6423C101.57 40.6423 101.697 40.5858 101.791 40.4854C101.885 40.3849 101.937 40.2487 101.937 40.1066C101.937 39.9645 101.885 39.8282 101.791 39.7278C101.697 39.6273 101.57 39.5709 101.437 39.5709C101.305 39.5709 101.178 39.6273 101.084 39.7278C100.99 39.8282 100.937 39.9645 100.937 40.1066C100.937 40.2487 100.99 40.3849 101.084 40.4854C101.178 40.5858 101.305 40.6423 101.437 40.6423ZM99.4375 46.892C99.4375 46.7499 99.3848 46.6136 99.2911 46.5132C99.1973 46.4127 99.0701 46.3563 98.9375 46.3563C98.8049 46.3563 98.6777 46.4127 98.5839 46.5132C98.4902 46.6136 98.4375 46.7499 98.4375 46.892C98.4375 47.034 98.4902 47.1703 98.5839 47.2707C98.6777 47.3712 98.8049 47.4276 98.9375 47.4276C99.0701 47.4276 99.1973 47.3712 99.2911 47.2707C99.3848 47.1703 99.4375 47.034 99.4375 46.892Z" fill="#8B949E"/>
<path d="M109.653 44.5H105.639V43.843L107.214 42.142C107.514 41.818 107.766 41.53 107.97 41.278C108.18 41.026 108.339 40.78 108.447 40.54C108.555 40.294 108.609 40.027 108.609 39.739C108.609 39.385 108.513 39.118 108.321 38.938C108.129 38.752 107.877 38.659 107.565 38.659C107.277 38.659 107.022 38.713 106.8 38.821C106.578 38.929 106.353 39.079 106.125 39.271L105.702 38.74C105.864 38.596 106.038 38.467 106.224 38.353C106.41 38.239 106.614 38.149 106.836 38.083C107.064 38.017 107.31 37.984 107.574 37.984C107.952 37.984 108.276 38.053 108.546 38.191C108.822 38.329 109.035 38.527 109.185 38.785C109.335 39.037 109.41 39.34 109.41 39.694C109.41 39.946 109.371 40.186 109.293 40.414C109.221 40.636 109.116 40.855 108.978 41.071C108.84 41.287 108.675 41.506 108.483 41.728C108.297 41.95 108.087 42.184 107.853 42.43L106.62 43.744L106.629 43.78H109.653V44.5Z" fill="#8B949E"/>
</svg>
