<svg width="356" height="49" viewBox="0 0 356 49" fill="none" xmlns="http://www.w3.org/2000/svg">
<rect x="0.707031" y="0.92334" width="5.22849" height="5.63783" rx="1" fill="#93E7A2"/>
<rect x="188.846" y="0.92334" width="5.22849" height="5.63783" rx="1" fill="#93E7A2"/>
<rect x="94.7764" y="0.92334" width="5.22849" height="5.63783" rx="1" fill="#4D505E" fill-opacity="0.26"/>
<rect x="282.916" y="0.92334" width="5.22849" height="5.63783" rx="1" fill="#4D505E" fill-opacity="0.26"/>
<rect x="47.7437" y="0.92334" width="5.22849" height="5.63783" rx="1" fill="#93E7A2"/>
<rect x="235.881" y="0.92334" width="5.22849" height="5.63783" rx="1" fill="#93E7A2"/>
<rect x="141.811" y="0.92334" width="5.22849" height="5.63783" rx="1" fill="#93E7A2"/>
<rect x="329.952" y="0.92334" width="5.22849" height="5.63783" rx="1" fill="#4D505E" fill-opacity="0.26"/>
<rect x="343.335" y="1.05225" width="5.22849" height="5.63783" rx="1" fill="#4D505E" fill-opacity="0.26"/>
<rect x="7.42529" y="0.92334" width="5.22849" height="5.63783" rx="1" fill="#93E7A2"/>
<rect x="195.566" y="0.92334" width="5.22849" height="5.63783" rx="1" fill="#93E7A2"/>
<rect x="101.495" y="0.92334" width="5.22849" height="5.63783" rx="1" fill="#3EBE5E"/>
<rect x="289.636" y="0.92334" width="5.22849" height="5.63783" rx="1" fill="#93E7A2"/>
<rect x="54.4619" y="0.92334" width="5.22849" height="5.63783" rx="1" fill="#93E7A2"/>
<rect x="242.599" y="0.92334" width="5.22849" height="5.63783" rx="1" fill="#3EBE5E"/>
<rect x="148.529" y="0.92334" width="5.22849" height="5.63783" rx="1" fill="#4D505E" fill-opacity="0.26"/>
<rect x="336.67" y="0.92334" width="5.22849" height="5.63783" rx="1" fill="#93E7A2"/>
<rect x="350.055" y="1.05225" width="5.22849" height="5.63783" rx="1" fill="#93E7A2"/>
<rect x="14.145" y="0.92334" width="5.22849" height="5.63783" rx="1" fill="#4D505E" fill-opacity="0.26"/>
<rect x="202.284" y="0.92334" width="5.22849" height="5.63783" rx="1" fill="#3EBE5E"/>
<rect x="108.217" y="0.92334" width="5.22849" height="5.63783" rx="1" fill="#3EBE5E"/>
<rect x="296.354" y="0.92334" width="5.22849" height="5.63783" rx="1" fill="#93E7A2"/>
<rect x="61.1802" y="0.92334" width="5.22849" height="5.63783" rx="1" fill="#93E7A2"/>
<rect x="249.319" y="0.92334" width="5.22849" height="5.63783" rx="1" fill="#4D505E" fill-opacity="0.26"/>
<rect x="155.248" y="0.92334" width="5.22849" height="5.63783" rx="1" fill="#93E7A2"/>
<rect x="20.8652" y="0.92334" width="5.22849" height="5.63783" rx="1" fill="#93E7A2"/>
<rect x="209.002" y="0.92334" width="5.22849" height="5.63783" rx="1" fill="#4D505E" fill-opacity="0.26"/>
<rect x="114.935" y="0.92334" width="5.22849" height="5.63783" rx="1" fill="#93E7A2"/>
<rect x="303.074" y="0.92334" width="5.22849" height="5.63783" rx="1" fill="#3EBE5E"/>
<rect x="67.8999" y="0.92334" width="5.22849" height="5.63783" rx="1" fill="#4D505E" fill-opacity="0.26"/>
<rect x="256.039" y="0.92334" width="5.22849" height="5.63783" rx="1" fill="#4D505E" fill-opacity="0.26"/>
<rect x="161.97" y="0.92334" width="5.22849" height="5.63783" rx="1" fill="#93E7A2"/>
<rect x="27.5835" y="0.92334" width="5.22849" height="5.63783" rx="1" fill="#2F984A"/>
<rect x="215.723" y="0.92334" width="5.22849" height="5.63783" rx="1" fill="#93E7A2"/>
<rect x="121.653" y="0.92334" width="5.22849" height="5.63783" rx="1" fill="#3EBE5E"/>
<rect x="309.794" y="0.92334" width="5.22849" height="5.63783" rx="1" fill="#93E7A2"/>
<rect x="74.6182" y="0.92334" width="5.22849" height="5.63783" rx="1" fill="#3EBE5E"/>
<rect x="262.757" y="0.92334" width="5.22849" height="5.63783" rx="1" fill="#93E7A2"/>
<rect x="168.688" y="0.92334" width="5.22849" height="5.63783" rx="1" fill="#93E7A2"/>
<rect x="34.3037" y="0.92334" width="5.22849" height="5.63783" rx="1" fill="#216435"/>
<rect x="222.442" y="0.92334" width="5.22849" height="5.63783" rx="1" fill="#93E7A2"/>
<rect x="128.373" y="0.92334" width="5.22849" height="5.63783" rx="1" fill="#93E7A2"/>
<rect x="316.512" y="0.92334" width="5.22849" height="5.63783" rx="1" fill="#216435"/>
<rect x="81.3384" y="0.92334" width="5.22849" height="5.63783" rx="1" fill="#93E7A2"/>
<rect x="269.476" y="0.92334" width="5.22849" height="5.63783" rx="1" fill="#216435"/>
<rect x="175.406" y="0.92334" width="5.22849" height="5.63783" rx="1" fill="#93E7A2"/>
<rect x="41.0215" y="0.92334" width="5.22849" height="5.63783" rx="1" fill="#4D505E" fill-opacity="0.26"/>
<rect x="229.161" y="0.92334" width="5.22849" height="5.63783" rx="1" fill="#216435"/>
<rect x="135.093" y="0.92334" width="5.22849" height="5.63783" rx="1" fill="#3EBE5E"/>
<rect x="323.23" y="0.92334" width="5.22849" height="5.63783" rx="1" fill="#216435"/>
<rect x="88.0586" y="0.92334" width="5.22849" height="5.63783" rx="1" fill="#93E7A2"/>
<rect x="276.197" y="0.92334" width="5.22849" height="5.63783" rx="1" fill="#3EBE5E"/>
<rect x="182.126" y="0.92334" width="5.22849" height="5.63783" rx="1" fill="#93E7A2"/>
<rect x="0.707031" y="7.84326" width="5.22849" height="5.63783" rx="1" fill="#3EBE5E"/>
<rect x="188.846" y="7.84326" width="5.22849" height="5.63783" rx="1" fill="#93E7A2"/>
<rect x="94.7764" y="7.84326" width="5.22849" height="5.63783" rx="1" fill="#4D505E" fill-opacity="0.26"/>
<rect x="282.916" y="7.84326" width="5.22849" height="5.63783" rx="1" fill="#93E7A2"/>
<rect x="47.7437" y="7.84326" width="5.22849" height="5.63783" rx="1" fill="#3EBE5E"/>
<rect x="235.881" y="7.84326" width="5.22849" height="5.63783" rx="1" fill="#93E7A2"/>
<rect x="141.811" y="7.84326" width="5.22849" height="5.63783" rx="1" fill="#4D505E" fill-opacity="0.26"/>
<rect x="329.952" y="7.84326" width="5.22849" height="5.63783" rx="1" fill="#2F984A"/>
<rect x="350.055" y="7.74951" width="5.22849" height="5.63783" rx="1" fill="#3EBE5E"/>
<rect x="7.42529" y="7.84326" width="5.22849" height="5.63783" rx="1" fill="#3EBE5E"/>
<rect x="195.566" y="7.84326" width="5.22849" height="5.63783" rx="1" fill="#3EBE5E"/>
<rect x="101.495" y="7.84326" width="5.22849" height="5.63783" rx="1" fill="#3EBE5E"/>
<rect x="289.636" y="7.84326" width="5.22849" height="5.63783" rx="1" fill="#3EBE5E"/>
<rect x="54.4619" y="7.84326" width="5.22849" height="5.63783" rx="1" fill="#93E7A2"/>
<rect x="242.599" y="7.84326" width="5.22849" height="5.63783" rx="1" fill="#2F984A"/>
<rect x="148.529" y="7.84326" width="5.22849" height="5.63783" rx="1" fill="#4D505E" fill-opacity="0.26"/>
<rect x="336.67" y="7.84326" width="5.22849" height="5.63783" rx="1" fill="#2F984A"/>
<rect x="14.145" y="7.84326" width="5.22849" height="5.63783" rx="1" fill="#4D505E" fill-opacity="0.26"/>
<rect x="202.284" y="7.84326" width="5.22849" height="5.63783" rx="1" fill="#4D505E" fill-opacity="0.26"/>
<rect x="108.217" y="7.84326" width="5.22849" height="5.63783" rx="1" fill="#93E7A2"/>
<rect x="296.354" y="7.84326" width="5.22849" height="5.63783" rx="1" fill="#93E7A2"/>
<rect x="61.1802" y="7.84326" width="5.22849" height="5.63783" rx="1" fill="#93E7A2"/>
<rect x="249.319" y="7.84326" width="5.22849" height="5.63783" rx="1" fill="#4D505E" fill-opacity="0.26"/>
<rect x="155.248" y="7.84326" width="5.22849" height="5.63783" rx="1" fill="#93E7A2"/>
<rect x="20.8652" y="7.84326" width="5.22849" height="5.63783" rx="1" fill="#4D505E" fill-opacity="0.26"/>
<rect x="209.002" y="7.84326" width="5.22849" height="5.63783" rx="1" fill="#4D505E" fill-opacity="0.26"/>
<rect x="114.935" y="7.84326" width="5.22849" height="5.63783" rx="1" fill="#93E7A2"/>
<rect x="303.074" y="7.84326" width="5.22849" height="5.63783" rx="1" fill="#3EBE5E"/>
<rect x="67.8999" y="7.84326" width="5.22849" height="5.63783" rx="1" fill="#4D505E" fill-opacity="0.26"/>
<rect x="256.039" y="7.84326" width="5.22849" height="5.63783" rx="1" fill="#93E7A2"/>
<rect x="161.97" y="7.84326" width="5.22849" height="5.63783" rx="1" fill="#93E7A2"/>
<rect x="27.5835" y="7.84326" width="5.22849" height="5.63783" rx="1" fill="#4D505E" fill-opacity="0.26"/>
<rect x="215.723" y="7.84326" width="5.22849" height="5.63783" rx="1" fill="#4D505E" fill-opacity="0.26"/>
<rect x="121.653" y="7.84326" width="5.22849" height="5.63783" rx="1" fill="#4D505E" fill-opacity="0.26"/>
<rect x="309.794" y="7.84326" width="5.22849" height="5.63783" rx="1" fill="#3EBE5E"/>
<rect x="74.6182" y="7.84326" width="5.22849" height="5.63783" rx="1" fill="#4D505E" fill-opacity="0.26"/>
<rect x="262.757" y="7.84326" width="5.22849" height="5.63783" rx="1" fill="#2F984A"/>
<rect x="168.688" y="7.84326" width="5.22849" height="5.63783" rx="1" fill="#4D505E" fill-opacity="0.26"/>
<rect x="34.3037" y="7.84326" width="5.22849" height="5.63783" rx="1" fill="#4D505E" fill-opacity="0.26"/>
<rect x="222.442" y="7.84326" width="5.22849" height="5.63783" rx="1" fill="#3EBE5E"/>
<rect x="128.373" y="7.84326" width="5.22849" height="5.63783" rx="1" fill="#4D505E" fill-opacity="0.26"/>
<rect x="316.512" y="7.84326" width="5.22849" height="5.63783" rx="1" fill="#2F984A"/>
<rect x="81.3384" y="7.84326" width="5.22849" height="5.63783" rx="1" fill="#4D505E" fill-opacity="0.26"/>
<rect x="269.476" y="7.84326" width="5.22849" height="5.63783" rx="1" fill="#93E7A2"/>
<rect x="175.406" y="7.84326" width="5.22849" height="5.63783" rx="1" fill="#4D505E" fill-opacity="0.26"/>
<rect x="41.0215" y="7.84326" width="5.22849" height="5.63783" rx="1" fill="#93E7A2"/>
<rect x="229.161" y="7.84326" width="5.22849" height="5.63783" rx="1" fill="#93E7A2"/>
<rect x="135.093" y="7.84326" width="5.22849" height="5.63783" rx="1" fill="#93E7A2"/>
<rect x="323.23" y="7.84326" width="5.22849" height="5.63783" rx="1" fill="#3EBE5E"/>
<rect x="343.335" y="7.74951" width="5.22849" height="5.63783" rx="1" fill="#93E7A2"/>
<rect x="88.0586" y="7.84326" width="5.22849" height="5.63783" rx="1" fill="#93E7A2"/>
<rect x="276.197" y="7.84326" width="5.22849" height="5.63783" rx="1" fill="#2F984A"/>
<rect x="182.126" y="7.84326" width="5.22849" height="5.63783" rx="1" fill="#93E7A2"/>
<rect x="0.707031" y="14.7573" width="5.22849" height="5.63783" rx="1" fill="#93E7A2"/>
<rect x="188.846" y="14.7573" width="5.22849" height="5.63783" rx="1" fill="#4D505E" fill-opacity="0.26"/>
<rect x="94.7764" y="14.7573" width="5.22849" height="5.63783" rx="1" fill="#3EBE5E"/>
<rect x="282.916" y="14.7573" width="5.22849" height="5.63783" rx="1" fill="#93E7A2"/>
<rect x="47.7437" y="14.7573" width="5.22849" height="5.63783" rx="1" fill="#93E7A2"/>
<rect x="235.881" y="14.7573" width="5.22849" height="5.63783" rx="1" fill="#93E7A2"/>
<rect x="141.811" y="14.7573" width="5.22849" height="5.63783" rx="1" fill="#4D505E" fill-opacity="0.26"/>
<rect x="329.952" y="14.7573" width="5.22849" height="5.63783" rx="1" fill="#3EBE5E"/>
<rect x="350.064" y="14.7124" width="5.22849" height="5.63783" rx="1" fill="#4D505E" fill-opacity="0.26"/>
<rect x="7.42529" y="14.7573" width="5.22849" height="5.63783" rx="1" fill="#3EBE5E"/>
<rect x="195.566" y="14.7573" width="5.22849" height="5.63783" rx="1" fill="#3EBE5E"/>
<rect x="101.495" y="14.7573" width="5.22849" height="5.63783" rx="1" fill="#4D505E" fill-opacity="0.26"/>
<rect x="289.636" y="14.7573" width="5.22849" height="5.63783" rx="1" fill="#3EBE5E"/>
<rect x="54.4619" y="14.7573" width="5.22849" height="5.63783" rx="1" fill="#3EBE5E"/>
<rect x="242.599" y="14.7573" width="5.22849" height="5.63783" rx="1" fill="#3EBE5E"/>
<rect x="148.529" y="14.7573" width="5.22849" height="5.63783" rx="1" fill="#93E7A2"/>
<rect x="14.145" y="14.7573" width="5.22849" height="5.63783" rx="1" fill="#4D505E" fill-opacity="0.26"/>
<rect x="202.284" y="14.7573" width="5.22849" height="5.63783" rx="1" fill="#4D505E" fill-opacity="0.26"/>
<rect x="108.217" y="14.7573" width="5.22849" height="5.63783" rx="1" fill="#4D505E" fill-opacity="0.26"/>
<rect x="296.354" y="14.7573" width="5.22849" height="5.63783" rx="1" fill="#93E7A2"/>
<rect x="61.1802" y="14.7573" width="5.22849" height="5.63783" rx="1" fill="#93E7A2"/>
<rect x="249.319" y="14.7573" width="5.22849" height="5.63783" rx="1" fill="#93E7A2"/>
<rect x="155.248" y="14.7573" width="5.22849" height="5.63783" rx="1" fill="#93E7A2"/>
<rect x="20.8652" y="14.7573" width="5.22849" height="5.63783" rx="1" fill="#93E7A2"/>
<rect x="209.002" y="14.7573" width="5.22849" height="5.63783" rx="1" fill="#4D505E" fill-opacity="0.26"/>
<rect x="114.935" y="14.7573" width="5.22849" height="5.63783" rx="1" fill="#93E7A2"/>
<rect x="303.074" y="14.7573" width="5.22849" height="5.63783" rx="1" fill="#93E7A2"/>
<rect x="67.8999" y="14.7573" width="5.22849" height="5.63783" rx="1" fill="#93E7A2"/>
<rect x="256.039" y="14.7573" width="5.22849" height="5.63783" rx="1" fill="#3EBE5E"/>
<rect x="161.97" y="14.7573" width="5.22849" height="5.63783" rx="1" fill="#93E7A2"/>
<rect x="27.5835" y="14.7573" width="5.22849" height="5.63783" rx="1" fill="#4D505E" fill-opacity="0.26"/>
<rect x="215.723" y="14.7573" width="5.22849" height="5.63783" rx="1" fill="#93E7A2"/>
<rect x="121.653" y="14.7573" width="5.22849" height="5.63783" rx="1" fill="#4D505E" fill-opacity="0.26"/>
<rect x="309.794" y="14.7573" width="5.22849" height="5.63783" rx="1" fill="#2F984A"/>
<rect x="74.6182" y="14.7573" width="5.22849" height="5.63783" rx="1" fill="#93E7A2"/>
<rect x="262.757" y="14.7573" width="5.22849" height="5.63783" rx="1" fill="#93E7A2"/>
<rect x="168.688" y="14.7573" width="5.22849" height="5.63783" rx="1" fill="#93E7A2"/>
<rect x="34.3037" y="14.7573" width="5.22849" height="5.63783" rx="1" fill="#4D505E" fill-opacity="0.26"/>
<rect x="222.442" y="14.7573" width="5.22849" height="5.63783" rx="1" fill="#3EBE5E"/>
<rect x="128.373" y="14.7573" width="5.22849" height="5.63783" rx="1" fill="#4D505E" fill-opacity="0.26"/>
<rect x="316.512" y="14.7573" width="5.22849" height="5.63783" rx="1" fill="#216435"/>
<rect x="336.628" y="14.7124" width="5.22849" height="5.63783" rx="1" fill="#216435"/>
<rect x="81.3384" y="14.7573" width="5.22849" height="5.63783" rx="1" fill="#4D505E" fill-opacity="0.26"/>
<rect x="269.476" y="14.7573" width="5.22849" height="5.63783" rx="1" fill="#3EBE5E"/>
<rect x="175.406" y="14.7573" width="5.22849" height="5.63783" rx="1" fill="#4D505E" fill-opacity="0.26"/>
<rect x="41.0215" y="14.7573" width="5.22849" height="5.63783" rx="1" fill="#93E7A2"/>
<rect x="229.161" y="14.7573" width="5.22849" height="5.63783" rx="1" fill="#93E7A2"/>
<rect x="135.093" y="14.7573" width="5.22849" height="5.63783" rx="1" fill="#93E7A2"/>
<rect x="323.23" y="14.7573" width="5.22849" height="5.63783" rx="1" fill="#216435"/>
<rect x="343.347" y="14.7124" width="5.22849" height="5.63783" rx="1" fill="#4D505E" fill-opacity="0.26"/>
<rect x="88.0586" y="14.7573" width="5.22849" height="5.63783" rx="1" fill="#4D505E" fill-opacity="0.26"/>
<rect x="276.197" y="14.7573" width="5.22849" height="5.63783" rx="1" fill="#3EBE5E"/>
<rect x="182.126" y="14.7573" width="5.22849" height="5.63783" rx="1" fill="#93E7A2"/>
<rect x="0.707031" y="21.6812" width="5.22849" height="5.63783" rx="1" fill="#3EBE5E"/>
<rect x="188.846" y="21.6812" width="5.22849" height="5.63783" rx="1" fill="#3EBE5E"/>
<rect x="94.7764" y="21.6812" width="5.22849" height="5.63783" rx="1" fill="#93E7A2"/>
<rect x="282.916" y="21.6812" width="5.22849" height="5.63783" rx="1" fill="#3EBE5E"/>
<rect x="47.7437" y="21.6812" width="5.22849" height="5.63783" rx="1" fill="#3EBE5E"/>
<rect x="235.881" y="21.6812" width="5.22849" height="5.63783" rx="1" fill="#93E7A2"/>
<rect x="141.811" y="21.6812" width="5.22849" height="5.63783" rx="1" fill="#4D505E" fill-opacity="0.26"/>
<rect x="329.952" y="21.6812" width="5.22849" height="5.63783" rx="1" fill="#2F984A"/>
<rect x="350.064" y="21.6812" width="5.22849" height="5.63783" rx="1" fill="#4D505E" fill-opacity="0.26"/>
<rect x="7.42529" y="21.6812" width="5.22849" height="5.63783" rx="1" fill="#3EBE5E"/>
<rect x="195.566" y="21.6812" width="5.22849" height="5.63783" rx="1" fill="#93E7A2"/>
<rect x="101.495" y="21.6812" width="5.22849" height="5.63783" rx="1" fill="#93E7A2"/>
<rect x="289.636" y="21.6812" width="5.22849" height="5.63783" rx="1" fill="#3EBE5E"/>
<rect x="54.4619" y="21.6812" width="5.22849" height="5.63783" rx="1" fill="#93E7A2"/>
<rect x="242.599" y="21.6812" width="5.22849" height="5.63783" rx="1" fill="#2F984A"/>
<rect x="148.529" y="21.6812" width="5.22849" height="5.63783" rx="1" fill="#4D505E" fill-opacity="0.26"/>
<rect x="14.145" y="21.6812" width="5.22849" height="5.63783" rx="1" fill="#93E7A2"/>
<rect x="202.284" y="21.6812" width="5.22849" height="5.63783" rx="1" fill="#93E7A2"/>
<rect x="108.217" y="21.6812" width="5.22849" height="5.63783" rx="1" fill="#93E7A2"/>
<rect x="296.354" y="21.6812" width="5.22849" height="5.63783" rx="1" fill="#93E7A2"/>
<rect x="61.1802" y="21.6812" width="5.22849" height="5.63783" rx="1" fill="#3EBE5E"/>
<rect x="249.319" y="21.6812" width="5.22849" height="5.63783" rx="1" fill="#4D505E" fill-opacity="0.26"/>
<rect x="155.248" y="21.6812" width="5.22849" height="5.63783" rx="1" fill="#4D505E" fill-opacity="0.26"/>
<rect x="20.8652" y="21.6812" width="5.22849" height="5.63783" rx="1" fill="#4D505E" fill-opacity="0.26"/>
<rect x="209.002" y="21.6812" width="5.22849" height="5.63783" rx="1" fill="#93E7A2"/>
<rect x="114.935" y="21.6812" width="5.22849" height="5.63783" rx="1" fill="#93E7A2"/>
<rect x="303.074" y="21.6812" width="5.22849" height="5.63783" rx="1" fill="#3EBE5E"/>
<rect x="67.8999" y="21.6812" width="5.22849" height="5.63783" rx="1" fill="#93E7A2"/>
<rect x="256.039" y="21.6812" width="5.22849" height="5.63783" rx="1" fill="#93E7A2"/>
<rect x="161.97" y="21.6812" width="5.22849" height="5.63783" rx="1" fill="#3EBE5E"/>
<rect x="27.5835" y="21.6812" width="5.22849" height="5.63783" rx="1" fill="#93E7A2"/>
<rect x="215.723" y="21.6812" width="5.22849" height="5.63783" rx="1" fill="#4D505E" fill-opacity="0.26"/>
<rect x="121.653" y="21.6812" width="5.22849" height="5.63783" rx="1" fill="#93E7A2"/>
<rect x="309.794" y="21.6812" width="5.22849" height="5.63783" rx="1" fill="#3EBE5E"/>
<rect x="74.6182" y="21.6812" width="5.22849" height="5.63783" rx="1" fill="#4D505E" fill-opacity="0.26"/>
<rect x="262.757" y="21.6812" width="5.22849" height="5.63783" rx="1" fill="#3EBE5E"/>
<rect x="168.688" y="21.6812" width="5.22849" height="5.63783" rx="1" fill="#93E7A2"/>
<rect x="34.3037" y="21.6812" width="5.22849" height="5.63783" rx="1" fill="#93E7A2"/>
<rect x="222.442" y="21.6812" width="5.22849" height="5.63783" rx="1" fill="#216435"/>
<rect x="128.373" y="21.6812" width="5.22849" height="5.63783" rx="1" fill="#93E7A2"/>
<rect x="316.512" y="21.6812" width="5.22849" height="5.63783" rx="1" fill="#216435"/>
<rect x="336.628" y="21.6812" width="5.22849" height="5.63783" rx="1" fill="#2F984A"/>
<rect x="81.3384" y="21.6812" width="5.22849" height="5.63783" rx="1" fill="#93E7A2"/>
<rect x="269.476" y="21.6812" width="5.22849" height="5.63783" rx="1" fill="#2F984A"/>
<rect x="175.406" y="21.6812" width="5.22849" height="5.63783" rx="1" fill="#4D505E" fill-opacity="0.26"/>
<rect x="41.0215" y="21.6812" width="5.22849" height="5.63783" rx="1" fill="#3EBE5E"/>
<rect x="229.161" y="21.6812" width="5.22849" height="5.63783" rx="1" fill="#2F984A"/>
<rect x="135.093" y="21.6812" width="5.22849" height="5.63783" rx="1" fill="#4D505E" fill-opacity="0.26"/>
<rect x="323.23" y="21.6812" width="5.22849" height="5.63783" rx="1" fill="#3EBE5E"/>
<rect x="343.347" y="21.6812" width="5.22849" height="5.63783" rx="1" fill="#4D505E" fill-opacity="0.26"/>
<rect x="88.0586" y="21.6812" width="5.22849" height="5.63783" rx="1" fill="#93E7A2"/>
<rect x="276.197" y="21.6812" width="5.22849" height="5.63783" rx="1" fill="#3EBE5E"/>
<rect x="182.126" y="21.6812" width="5.22849" height="5.63783" rx="1" fill="#93E7A2"/>
<rect x="0.707031" y="28.5972" width="5.22849" height="5.63783" rx="1" fill="#3EBE5E"/>
<rect x="188.846" y="28.5972" width="5.22849" height="5.63783" rx="1" fill="#93E7A2"/>
<rect x="94.7764" y="28.5972" width="5.22849" height="5.63783" rx="1" fill="#3EBE5E"/>
<rect x="282.916" y="28.5972" width="5.22849" height="5.63783" rx="1" fill="#3EBE5E"/>
<rect x="47.7437" y="28.5972" width="5.22849" height="5.63783" rx="1" fill="#93E7A2"/>
<rect x="235.881" y="28.5972" width="5.22849" height="5.63783" rx="1" fill="#216435"/>
<rect x="141.811" y="28.5972" width="5.22849" height="5.63783" rx="1" fill="#4D505E" fill-opacity="0.26"/>
<rect x="329.952" y="28.5972" width="5.22849" height="5.63783" rx="1" fill="#216435"/>
<rect x="350.064" y="28.6421" width="5.22849" height="5.63783" rx="1" fill="#4D505E" fill-opacity="0.26"/>
<rect x="7.42529" y="28.5972" width="5.22849" height="5.63783" rx="1" fill="#93E7A2"/>
<rect x="195.566" y="28.5972" width="5.22849" height="5.63783" rx="1" fill="#3EBE5E"/>
<rect x="101.495" y="28.5972" width="5.22849" height="5.63783" rx="1" fill="#4D505E" fill-opacity="0.26"/>
<rect x="289.636" y="28.5972" width="5.22849" height="5.63783" rx="1" fill="#216435"/>
<rect x="54.4619" y="28.5972" width="5.22849" height="5.63783" rx="1" fill="#93E7A2"/>
<rect x="242.599" y="28.5972" width="5.22849" height="5.63783" rx="1" fill="#3EBE5E"/>
<rect x="148.529" y="28.5972" width="5.22849" height="5.63783" rx="1" fill="#4D505E" fill-opacity="0.26"/>
<rect x="14.145" y="28.5972" width="5.22849" height="5.63783" rx="1" fill="#93E7A2"/>
<rect x="202.284" y="28.5972" width="5.22849" height="5.63783" rx="1" fill="#3EBE5E"/>
<rect x="108.217" y="28.5972" width="5.22849" height="5.63783" rx="1" fill="#4D505E" fill-opacity="0.26"/>
<rect x="296.354" y="28.5972" width="5.22849" height="5.63783" rx="1" fill="#93E7A2"/>
<rect x="61.1802" y="28.5972" width="5.22849" height="5.63783" rx="1" fill="#3EBE5E"/>
<rect x="249.319" y="28.5972" width="5.22849" height="5.63783" rx="1" fill="#93E7A2"/>
<rect x="155.248" y="28.5972" width="5.22849" height="5.63783" rx="1" fill="#93E7A2"/>
<rect x="20.8652" y="28.5972" width="5.22849" height="5.63783" rx="1" fill="#3EBE5E"/>
<rect x="209.002" y="28.5972" width="5.22849" height="5.63783" rx="1" fill="#93E7A2"/>
<rect x="114.935" y="28.5972" width="5.22849" height="5.63783" rx="1" fill="#4D505E" fill-opacity="0.26"/>
<rect x="303.074" y="28.5972" width="5.22849" height="5.63783" rx="1" fill="#2F984A"/>
<rect x="67.8999" y="28.5972" width="5.22849" height="5.63783" rx="1" fill="#4D505E" fill-opacity="0.26"/>
<rect x="256.039" y="28.5972" width="5.22849" height="5.63783" rx="1" fill="#3EBE5E"/>
<rect x="161.97" y="28.5972" width="5.22849" height="5.63783" rx="1" fill="#4D505E" fill-opacity="0.26"/>
<rect x="27.5835" y="28.5972" width="5.22849" height="5.63783" rx="1" fill="#93E7A2"/>
<rect x="215.723" y="28.5972" width="5.22849" height="5.63783" rx="1" fill="#93E7A2"/>
<rect x="121.653" y="28.5972" width="5.22849" height="5.63783" rx="1" fill="#93E7A2"/>
<rect x="309.794" y="28.5972" width="5.22849" height="5.63783" rx="1" fill="#3EBE5E"/>
<rect x="74.6182" y="28.5972" width="5.22849" height="5.63783" rx="1" fill="#4D505E" fill-opacity="0.26"/>
<rect x="262.757" y="28.5972" width="5.22849" height="5.63783" rx="1" fill="#4D505E" fill-opacity="0.26"/>
<rect x="168.688" y="28.5972" width="5.22849" height="5.63783" rx="1" fill="#3EBE5E"/>
<rect x="34.3037" y="28.5972" width="5.22849" height="5.63783" rx="1" fill="#93E7A2"/>
<rect x="222.442" y="28.5972" width="5.22849" height="5.63783" rx="1" fill="#3EBE5E"/>
<rect x="128.373" y="28.5972" width="5.22849" height="5.63783" rx="1" fill="#4D505E" fill-opacity="0.26"/>
<rect x="316.512" y="28.5972" width="5.22849" height="5.63783" rx="1" fill="#3EBE5E"/>
<rect x="336.628" y="28.6421" width="5.22849" height="5.63783" rx="1" fill="#2F984A"/>
<rect x="81.3384" y="28.5972" width="5.22849" height="5.63783" rx="1" fill="#93E7A2"/>
<rect x="269.476" y="28.5972" width="5.22849" height="5.63783" rx="1" fill="#216435"/>
<rect x="175.406" y="28.5972" width="5.22849" height="5.63783" rx="1" fill="#4D505E" fill-opacity="0.26"/>
<rect x="41.0215" y="28.5972" width="5.22849" height="5.63783" rx="1" fill="#93E7A2"/>
<rect x="229.161" y="28.5972" width="5.22849" height="5.63783" rx="1" fill="#4D505E" fill-opacity="0.26"/>
<rect x="135.093" y="28.5972" width="5.22849" height="5.63783" rx="1" fill="#4D505E" fill-opacity="0.26"/>
<rect x="323.23" y="28.5972" width="5.22849" height="5.63783" rx="1" fill="#3EBE5E"/>
<rect x="343.347" y="28.6421" width="5.22849" height="5.63783" rx="1" fill="#4D505E" fill-opacity="0.26"/>
<rect x="88.0586" y="28.5972" width="5.22849" height="5.63783" rx="1" fill="#3EBE5E"/>
<rect x="276.197" y="28.5972" width="5.22849" height="5.63783" rx="1" fill="#4D505E" fill-opacity="0.26"/>
<rect x="182.126" y="28.5972" width="5.22849" height="5.63783" rx="1" fill="#4D505E" fill-opacity="0.26"/>
<rect x="0.707031" y="35.521" width="5.22849" height="5.63783" rx="1" fill="#4D505E" fill-opacity="0.26"/>
<rect x="188.846" y="35.521" width="5.22849" height="5.63783" rx="1" fill="#3EBE5E"/>
<rect x="94.7764" y="35.521" width="5.22849" height="5.63783" rx="1" fill="#93E7A2"/>
<rect x="282.916" y="35.521" width="5.22849" height="5.63783" rx="1" fill="#2F984A"/>
<rect x="47.7437" y="35.521" width="5.22849" height="5.63783" rx="1" fill="#93E7A2"/>
<rect x="235.881" y="35.521" width="5.22849" height="5.63783" rx="1" fill="#216435"/>
<rect x="141.811" y="35.521" width="5.22849" height="5.63783" rx="1" fill="#4D505E" fill-opacity="0.26"/>
<rect x="329.952" y="35.521" width="5.22849" height="5.63783" rx="1" fill="#2F984A"/>
<rect x="350.064" y="35.6147" width="5.22849" height="5.63783" rx="1" fill="#4D505E" fill-opacity="0.26"/>
<rect x="7.42529" y="35.521" width="5.22849" height="5.63783" rx="1" fill="#93E7A2"/>
<rect x="195.566" y="35.521" width="5.22849" height="5.63783" rx="1" fill="#3EBE5E"/>
<rect x="101.495" y="35.521" width="5.22849" height="5.63783" rx="1" fill="#3EBE5E"/>
<rect x="289.636" y="35.521" width="5.22849" height="5.63783" rx="1" fill="#2F984A"/>
<rect x="54.4619" y="35.521" width="5.22849" height="5.63783" rx="1" fill="#3EBE5E"/>
<rect x="242.599" y="35.521" width="5.22849" height="5.63783" rx="1" fill="#3EBE5E"/>
<rect x="148.529" y="35.521" width="5.22849" height="5.63783" rx="1" fill="#93E7A2"/>
<rect x="14.145" y="35.521" width="5.22849" height="5.63783" rx="1" fill="#4D505E" fill-opacity="0.26"/>
<rect x="202.284" y="35.521" width="5.22849" height="5.63783" rx="1" fill="#93E7A2"/>
<rect x="108.217" y="35.521" width="5.22849" height="5.63783" rx="1" fill="#93E7A2"/>
<rect x="296.354" y="35.521" width="5.22849" height="5.63783" rx="1" fill="#2F984A"/>
<rect x="61.1802" y="35.521" width="5.22849" height="5.63783" rx="1" fill="#3EBE5E"/>
<rect x="249.319" y="35.521" width="5.22849" height="5.63783" rx="1" fill="#4D505E" fill-opacity="0.26"/>
<rect x="155.248" y="35.521" width="5.22849" height="5.63783" rx="1" fill="#4D505E" fill-opacity="0.26"/>
<rect x="20.8652" y="35.521" width="5.22849" height="5.63783" rx="1" fill="#4D505E" fill-opacity="0.26"/>
<rect x="209.002" y="35.521" width="5.22849" height="5.63783" rx="1" fill="#93E7A2"/>
<rect x="114.935" y="35.521" width="5.22849" height="5.63783" rx="1" fill="#4D505E" fill-opacity="0.26"/>
<rect x="303.074" y="35.521" width="5.22849" height="5.63783" rx="1" fill="#93E7A2"/>
<rect x="67.8999" y="35.521" width="5.22849" height="5.63783" rx="1" fill="#4D505E" fill-opacity="0.26"/>
<rect x="256.039" y="35.521" width="5.22849" height="5.63783" rx="1" fill="#216435"/>
<rect x="161.97" y="35.521" width="5.22849" height="5.63783" rx="1" fill="#4D505E" fill-opacity="0.26"/>
<rect x="27.5835" y="35.521" width="5.22849" height="5.63783" rx="1" fill="#3EBE5E"/>
<rect x="215.723" y="35.521" width="5.22849" height="5.63783" rx="1" fill="#3EBE5E"/>
<rect x="121.653" y="35.521" width="5.22849" height="5.63783" rx="1" fill="#3EBE5E"/>
<rect x="309.794" y="35.521" width="5.22849" height="5.63783" rx="1" fill="#93E7A2"/>
<rect x="74.6182" y="35.521" width="5.22849" height="5.63783" rx="1" fill="#3EBE5E"/>
<rect x="262.757" y="35.521" width="5.22849" height="5.63783" rx="1" fill="#2F984A"/>
<rect x="168.688" y="35.521" width="5.22849" height="5.63783" rx="1" fill="#3EBE5E"/>
<rect x="34.3037" y="35.521" width="5.22849" height="5.63783" rx="1" fill="#3EBE5E"/>
<rect x="222.442" y="35.521" width="5.22849" height="5.63783" rx="1" fill="#2F984A"/>
<rect x="128.373" y="35.521" width="5.22849" height="5.63783" rx="1" fill="#4D505E" fill-opacity="0.26"/>
<rect x="316.512" y="35.521" width="5.22849" height="5.63783" rx="1" fill="#2F984A"/>
<rect x="336.628" y="35.6147" width="5.22849" height="5.63783" rx="1" fill="#93E7A2"/>
<rect x="81.3384" y="35.521" width="5.22849" height="5.63783" rx="1" fill="#93E7A2"/>
<rect x="269.476" y="35.521" width="5.22849" height="5.63783" rx="1" fill="#3EBE5E"/>
<rect x="175.406" y="35.521" width="5.22849" height="5.63783" rx="1" fill="#93E7A2"/>
<rect x="41.0215" y="35.521" width="5.22849" height="5.63783" rx="1" fill="#2F984A"/>
<rect x="229.161" y="35.521" width="5.22849" height="5.63783" rx="1" fill="#4D505E" fill-opacity="0.26"/>
<rect x="135.093" y="35.521" width="5.22849" height="5.63783" rx="1" fill="#4D505E" fill-opacity="0.26"/>
<rect x="323.23" y="35.521" width="5.22849" height="5.63783" rx="1" fill="#93E7A2"/>
<rect x="343.347" y="35.6147" width="5.22849" height="5.63783" rx="1" fill="#4D505E" fill-opacity="0.26"/>
<rect x="88.0586" y="35.521" width="5.22849" height="5.63783" rx="1" fill="#4D505E" fill-opacity="0.26"/>
<rect x="276.197" y="35.521" width="5.22849" height="5.63783" rx="1" fill="#4D505E" fill-opacity="0.26"/>
<rect x="182.126" y="35.521" width="5.22849" height="5.63783" rx="1" fill="#4D505E" fill-opacity="0.26"/>
<rect x="0.707031" y="42.439" width="5.22849" height="5.63783" rx="1" fill="#93E7A2"/>
<rect x="188.846" y="42.439" width="5.22849" height="5.63783" rx="1" fill="#3EBE5E"/>
<rect x="94.7764" y="42.439" width="5.22849" height="5.63783" rx="1" fill="#2F984A"/>
<rect x="282.916" y="42.439" width="5.22849" height="5.63783" rx="1" fill="#4D505E" fill-opacity="0.26"/>
<rect x="47.7437" y="42.439" width="5.22849" height="5.63783" rx="1" fill="#93E7A2"/>
<rect x="235.881" y="42.439" width="5.22849" height="5.63783" rx="1" fill="#4D505E" fill-opacity="0.26"/>
<rect x="141.811" y="42.439" width="5.22849" height="5.63783" rx="1" fill="#93E7A2"/>
<rect x="329.952" y="42.439" width="5.22849" height="5.63783" rx="1" fill="#93E7A2"/>
<rect x="350.064" y="42.3101" width="5.22849" height="5.63783" rx="1" fill="#4D505E" fill-opacity="0.26"/>
<rect x="7.42529" y="42.439" width="5.22849" height="5.63783" rx="1" fill="#4D505E" fill-opacity="0.26"/>
<rect x="195.566" y="42.439" width="5.22849" height="5.63783" rx="1" fill="#4D505E" fill-opacity="0.26"/>
<rect x="101.495" y="42.439" width="5.22849" height="5.63783" rx="1" fill="#93E7A2"/>
<rect x="289.636" y="42.439" width="5.22849" height="5.63783" rx="1" fill="#93E7A2"/>
<rect x="54.4619" y="42.439" width="5.22849" height="5.63783" rx="1" fill="#4D505E" fill-opacity="0.26"/>
<rect x="242.599" y="42.439" width="5.22849" height="5.63783" rx="1" fill="#4D505E" fill-opacity="0.26"/>
<rect x="148.529" y="42.439" width="5.22849" height="5.63783" rx="1" fill="#4D505E" fill-opacity="0.26"/>
<rect x="14.145" y="42.439" width="5.22849" height="5.63783" rx="1" fill="#93E7A2"/>
<rect x="202.284" y="42.439" width="5.22849" height="5.63783" rx="1" fill="#4D505E" fill-opacity="0.26"/>
<rect x="108.217" y="42.439" width="5.22849" height="5.63783" rx="1" fill="#93E7A2"/>
<rect x="296.354" y="42.439" width="5.22849" height="5.63783" rx="1" fill="#93E7A2"/>
<rect x="61.1802" y="42.439" width="5.22849" height="5.63783" rx="1" fill="#3EBE5E"/>
<rect x="249.319" y="42.439" width="5.22849" height="5.63783" rx="1" fill="#4D505E" fill-opacity="0.26"/>
<rect x="155.248" y="42.439" width="5.22849" height="5.63783" rx="1" fill="#93E7A2"/>
<rect x="20.8652" y="42.439" width="5.22849" height="5.63783" rx="1" fill="#4D505E" fill-opacity="0.26"/>
<rect x="209.002" y="42.439" width="5.22849" height="5.63783" rx="1" fill="#4D505E" fill-opacity="0.26"/>
<rect x="114.935" y="42.439" width="5.22849" height="5.63783" rx="1" fill="#3EBE5E"/>
<rect x="303.074" y="42.439" width="5.22849" height="5.63783" rx="1" fill="#93E7A2"/>
<rect x="67.8999" y="42.439" width="5.22849" height="5.63783" rx="1" fill="#4D505E" fill-opacity="0.26"/>
<rect x="256.039" y="42.439" width="5.22849" height="5.63783" rx="1" fill="#216435"/>
<rect x="161.97" y="42.439" width="5.22849" height="5.63783" rx="1" fill="#4D505E" fill-opacity="0.26"/>
<rect x="27.5835" y="42.439" width="5.22849" height="5.63783" rx="1" fill="#93E7A2"/>
<rect x="215.723" y="42.439" width="5.22849" height="5.63783" rx="1" fill="#93E7A2"/>
<rect x="121.653" y="42.439" width="5.22849" height="5.63783" rx="1" fill="#4D505E" fill-opacity="0.26"/>
<rect x="309.794" y="42.439" width="5.22849" height="5.63783" rx="1" fill="#2F984A"/>
<rect x="74.6182" y="42.439" width="5.22849" height="5.63783" rx="1" fill="#3EBE5E"/>
<rect x="262.757" y="42.439" width="5.22849" height="5.63783" rx="1" fill="#3EBE5E"/>
<rect x="168.688" y="42.439" width="5.22849" height="5.63783" rx="1" fill="#4D505E" fill-opacity="0.26"/>
<rect x="34.3037" y="42.439" width="5.22849" height="5.63783" rx="1" fill="#4D505E" fill-opacity="0.26"/>
<rect x="222.442" y="42.439" width="5.22849" height="5.63783" rx="1" fill="#3EBE5E"/>
<rect x="128.373" y="42.439" width="5.22849" height="5.63783" rx="1" fill="#4D505E" fill-opacity="0.26"/>
<rect x="316.512" y="42.439" width="5.22849" height="5.63783" rx="1" fill="#93E7A2"/>
<rect x="336.628" y="42.3101" width="5.22849" height="5.63783" rx="1" fill="#4D505E" fill-opacity="0.26"/>
<rect x="81.3384" y="42.439" width="5.22849" height="5.63783" rx="1" fill="#93E7A2"/>
<rect x="269.476" y="42.439" width="5.22849" height="5.63783" rx="1" fill="#3EBE5E"/>
<rect x="175.406" y="42.439" width="5.22849" height="5.63783" rx="1" fill="#93E7A2"/>
<rect x="41.0215" y="42.439" width="5.22849" height="5.63783" rx="1" fill="#2F984A"/>
<rect x="229.161" y="42.439" width="5.22849" height="5.63783" rx="1" fill="#93E7A2"/>
<rect x="135.093" y="42.439" width="5.22849" height="5.63783" rx="1" fill="#93E7A2"/>
<rect x="323.23" y="42.439" width="5.22849" height="5.63783" rx="1" fill="#4D505E" fill-opacity="0.26"/>
<rect x="343.347" y="42.3101" width="5.22849" height="5.63783" rx="1" fill="#4D505E" fill-opacity="0.26"/>
<rect x="88.0586" y="42.439" width="5.22849" height="5.63783" rx="1" fill="#3EBE5E"/>
<rect x="276.197" y="42.439" width="5.22849" height="5.63783" rx="1" fill="#93E7A2"/>
<rect x="182.126" y="42.439" width="5.22849" height="5.63783" rx="1" fill="#3EBE5E"/>
</svg>
