<svg width="184" height="59" viewBox="0 0 184 59" fill="none" xmlns="http://www.w3.org/2000/svg">
<rect width="184" height="59" rx="15" fill="black"/>
<path d="M9 15.2222C9 14.6329 9.24144 14.0676 9.67121 13.6509C10.101 13.2341 10.6839 13 11.2917 13H19.3125C19.4948 13 19.6697 13.0702 19.7986 13.1953C19.9276 13.3203 20 13.4899 20 13.6667V24.7778C20 24.9546 19.9276 25.1242 19.7986 25.2492C19.6697 25.3742 19.4948 25.4444 19.3125 25.4444H17.0208C16.8385 25.4444 16.6636 25.3742 16.5347 25.2492C16.4058 25.1242 16.3333 24.9546 16.3333 24.7778C16.3333 24.601 16.4058 24.4314 16.5347 24.3064C16.6636 24.1813 16.8385 24.1111 17.0208 24.1111H18.625V22.3333H11.2917C11.1112 22.3334 10.9347 22.3851 10.7844 22.482C10.634 22.5789 10.5165 22.7166 10.4466 22.878C10.3767 23.0394 10.3575 23.2172 10.3914 23.3891C10.4253 23.561 10.5108 23.7194 10.6372 23.8444C10.7004 23.907 10.7502 23.981 10.7839 24.0623C10.8176 24.1436 10.8345 24.2304 10.8336 24.318C10.8326 24.4056 10.8139 24.4921 10.7785 24.5727C10.7431 24.6533 10.6916 24.7263 10.6271 24.7876C10.5626 24.8488 10.4862 24.8972 10.4024 24.9299C10.3186 24.9625 10.229 24.9789 10.1387 24.978C10.0484 24.9771 9.95915 24.9589 9.87607 24.9246C9.79299 24.8902 9.7177 24.8403 9.6545 24.7778C9.2344 24.3626 8.99935 23.8039 9 23.2222V15.2222ZM18.625 14.3333H11.2917C11.0486 14.3333 10.8154 14.427 10.6435 14.5937C10.4716 14.7604 10.375 14.9865 10.375 15.2222V21.1849C10.6641 21.0624 10.9762 20.9994 11.2917 21H18.625V14.3333ZM11.75 23.8889C11.75 23.83 11.7741 23.7734 11.8171 23.7318C11.8601 23.6901 11.9184 23.6667 11.9792 23.6667H15.1875C15.2483 23.6667 15.3066 23.6901 15.3495 23.7318C15.3925 23.7734 15.4167 23.83 15.4167 23.8889V26.7778C15.4167 26.819 15.4048 26.8595 15.3824 26.8946C15.3601 26.9297 15.3281 26.9581 15.29 26.9765C15.2519 26.995 15.2093 27.0028 15.1669 26.9991C15.1245 26.9954 15.084 26.9803 15.05 26.9556L13.7208 25.9893C13.6812 25.9603 13.633 25.9447 13.5833 25.9447C13.5337 25.9447 13.4854 25.9603 13.4458 25.9893L12.1167 26.9556C12.0826 26.9803 12.0421 26.9954 11.9997 26.9991C11.9574 27.0028 11.9147 26.995 11.8767 26.9765C11.8386 26.9581 11.8066 26.9297 11.7842 26.8946C11.7619 26.8595 11.75 26.819 11.75 26.7778V23.8889Z" fill="#8B949E"/>
<path d="M27.0605 23H25.5859V15.9541H30.2002V17.1699H27.0605V19.0596H29.9268V20.2266H27.0605V23ZM30.9521 23V17.7656H32.3291V18.708H32.3584C32.5439 18.0439 32.9883 17.6826 33.6035 17.6826C33.7695 17.6826 33.9111 17.707 34.0088 17.7363V18.9912C33.8916 18.9424 33.6963 18.9082 33.4912 18.9082C32.7881 18.9082 32.3779 19.3379 32.3779 20.0752V23H30.9521ZM36.8213 23.1123C35.2393 23.1123 34.2285 22.0967 34.2285 20.3779C34.2285 18.6836 35.2539 17.6533 36.8213 17.6533C38.3887 17.6533 39.4141 18.6787 39.4141 20.3779C39.4141 22.1016 38.4033 23.1123 36.8213 23.1123ZM36.8213 22.0234C37.5195 22.0234 37.9639 21.4326 37.9639 20.3828C37.9639 19.3428 37.5146 18.7422 36.8213 18.7422C36.1279 18.7422 35.6738 19.3428 35.6738 20.3828C35.6738 21.4326 36.1182 22.0234 36.8213 22.0234ZM40.1514 23V17.7656H41.5283V18.6982H41.5576C41.8359 18.0488 42.3877 17.668 43.1934 17.668C44.3555 17.668 45.0098 18.4004 45.0098 19.626V23H43.584V19.9238C43.584 19.2402 43.2617 18.8496 42.6221 18.8496C41.9824 18.8496 41.5771 19.3184 41.5771 19.9971V23H40.1514ZM46.2939 16.5596H47.7197V17.7656H48.6865V18.8398H47.7197V21.3447C47.7197 21.7451 47.915 21.9355 48.335 21.9355C48.4619 21.9355 48.5938 21.9258 48.6816 21.9111V22.9609C48.5352 22.9951 48.291 23.0195 48.0029 23.0195C46.7725 23.0195 46.2939 22.6094 46.2939 21.5889V18.8398H45.5566V17.7656H46.2939V16.5596ZM51.7383 18.708C51.1133 18.708 50.6641 19.1816 50.6152 19.8359H52.8369C52.8076 19.167 52.373 18.708 51.7383 18.708ZM52.8564 21.3984H54.165C54.0088 22.4238 53.0713 23.1123 51.7773 23.1123C50.166 23.1123 49.1992 22.082 49.1992 20.4072C49.1992 18.7373 50.1758 17.6533 51.7236 17.6533C53.2471 17.6533 54.209 18.6836 54.209 20.2754V20.71H50.6006V20.7979C50.6006 21.5449 51.0742 22.0576 51.8018 22.0576C52.3242 22.0576 52.7246 21.7988 52.8564 21.3984ZM54.9463 23V17.7656H56.3232V18.6982H56.3525C56.6309 18.0488 57.1826 17.668 57.9883 17.668C59.1504 17.668 59.8047 18.4004 59.8047 19.626V23H58.3789V19.9238C58.3789 19.2402 58.0566 18.8496 57.417 18.8496C56.7773 18.8496 56.3721 19.3184 56.3721 19.9971V23H54.9463ZM62.6514 23.083C61.3428 23.083 60.5176 22.0479 60.5176 20.373C60.5176 18.7129 61.3477 17.6826 62.6611 17.6826C63.418 17.6826 64.0039 18.083 64.2578 18.6641H64.2871V15.9541H65.7129V23H64.3066V22.1016H64.2822C64.0283 22.6777 63.4229 23.083 62.6514 23.083ZM63.1348 18.8252C62.417 18.8252 61.9775 19.4258 61.9775 20.3828C61.9775 21.3447 62.417 21.9355 63.1348 21.9355C63.8428 21.9355 64.2969 21.3398 64.2969 20.3828C64.2969 19.4307 63.8428 18.8252 63.1348 18.8252Z" fill="#58A6FF"/>
<rect x="80.5" y="12.5" width="33" height="14" rx="7" stroke="#30363D"/>
<path d="M87.5195 16.3633H89.6328C90.7266 16.3633 91.4883 17.1172 91.4883 18.2148C91.4883 19.3164 90.7109 20.0742 89.6055 20.0742H88.3945V22H87.5195V16.3633ZM88.3945 17.1016V19.3398H89.3984C90.1602 19.3398 90.5938 18.9297 90.5938 18.2188C90.5938 17.5078 90.1602 17.1016 89.4023 17.1016H88.3945ZM95.6758 17.8906V22H94.8672V21.3047H94.8477C94.6211 21.7969 94.2031 22.0742 93.5742 22.0742C92.6797 22.0742 92.1328 21.4922 92.1328 20.5508V17.8906H92.9766V20.3867C92.9766 21.0117 93.2734 21.3477 93.8555 21.3477C94.4648 21.3477 94.832 20.9258 94.832 20.2852V17.8906H95.6758ZM98.6992 22.0703C98.0977 22.0703 97.6328 21.7773 97.3789 21.3008H97.3633V22H96.543V16.3633H97.3867V18.5898H97.4062C97.6523 18.1133 98.1211 17.8242 98.7031 17.8242C99.7383 17.8242 100.414 18.6445 100.414 19.9453C100.414 21.25 99.7422 22.0703 98.6992 22.0703ZM98.4727 18.5352C97.832 18.5352 97.3828 19.0977 97.3828 19.9453C97.3828 20.8008 97.832 21.3555 98.4727 21.3555C99.1367 21.3555 99.5469 20.8164 99.5469 19.9453C99.5469 19.082 99.1367 18.5352 98.4727 18.5352ZM101.105 22V16.3633H101.949V22H101.105ZM102.844 22V17.8906H103.688V22H102.844ZM103.266 17.2891C102.996 17.2891 102.777 17.0742 102.777 16.8086C102.777 16.5391 102.996 16.3242 103.266 16.3242C103.539 16.3242 103.758 16.5391 103.758 16.8086C103.758 17.0742 103.539 17.2891 103.266 17.2891ZM108.078 19.3047H107.273C107.188 18.8672 106.859 18.5195 106.309 18.5195C105.656 18.5195 105.227 19.0625 105.227 19.9453C105.227 20.8477 105.66 21.3711 106.316 21.3711C106.836 21.3711 107.176 21.0859 107.273 20.6094H108.086C107.996 21.4844 107.297 22.0781 106.309 22.0781C105.133 22.0781 104.367 21.2734 104.367 19.9453C104.367 18.6406 105.133 17.8164 106.301 17.8164C107.359 17.8164 108.004 18.4961 108.078 19.3047Z" fill="#8B949E"/>
<path d="M166 24.5C165.735 24.5 165.48 24.3946 165.293 24.2071C165.105 24.0196 165 23.7652 165 23.5C165 23.2348 165.105 22.9804 165.293 22.7929C165.48 22.6054 165.735 22.5 166 22.5C166.265 22.5 166.52 22.6054 166.707 22.7929C166.895 22.9804 167 23.2348 167 23.5C167 23.7652 166.895 24.0196 166.707 24.2071C166.52 24.3946 166.265 24.5 166 24.5ZM166 20.5C165.735 20.5 165.48 20.3946 165.293 20.2071C165.105 20.0196 165 19.7652 165 19.5C165 19.2348 165.105 18.9804 165.293 18.7929C165.48 18.6054 165.735 18.5 166 18.5C166.265 18.5 166.52 18.6054 166.707 18.7929C166.895 18.9804 167 19.2348 167 19.5C167 19.7652 166.895 20.0196 166.707 20.2071C166.52 20.3946 166.265 20.5 166 20.5ZM162 24.5C161.735 24.5 161.48 24.3946 161.293 24.2071C161.105 24.0196 161 23.7652 161 23.5C161 23.2348 161.105 22.9804 161.293 22.7929C161.48 22.6054 161.735 22.5 162 22.5C162.265 22.5 162.52 22.6054 162.707 22.7929C162.895 22.9804 163 23.2348 163 23.5C163 23.7652 162.895 24.0196 162.707 24.2071C162.52 24.3946 162.265 24.5 162 24.5ZM167 15.5C167 15.7652 166.895 16.0196 166.707 16.2071C166.52 16.3946 166.265 16.5 166 16.5C165.735 16.5 165.48 16.3946 165.293 16.2071C165.105 16.0196 165 15.7652 165 15.5C165 15.2348 165.105 14.9804 165.293 14.7929C165.48 14.6054 165.735 14.5 166 14.5C166.265 14.5 166.52 14.6054 166.707 14.7929C166.895 14.9804 167 15.2348 167 15.5ZM163 19.5C163 19.7652 162.895 20.0196 162.707 20.2071C162.52 20.3946 162.265 20.5 162 20.5C161.735 20.5 161.48 20.3946 161.293 20.2071C161.105 20.0196 161 19.7652 161 19.5C161 19.2348 161.105 18.9804 161.293 18.7929C161.48 18.6054 161.735 18.5 162 18.5C162.265 18.5 162.52 18.6054 162.707 18.7929C162.895 18.9804 163 19.2348 163 19.5ZM162 16.5C161.735 16.5 161.48 16.3946 161.293 16.2071C161.105 16.0196 161 15.7652 161 15.5C161 15.2348 161.105 14.9804 161.293 14.7929C161.48 14.6054 161.735 14.5 162 14.5C162.265 14.5 162.52 14.6054 162.707 14.7929C162.895 14.9804 163 15.2348 163 15.5C163 15.7652 162.895 16.0196 162.707 16.2071C162.52 16.3946 162.265 16.5 162 16.5Z" fill="#8B949E"/>
<path d="M23.123 41.5068H23.6475C23.6592 41.8643 23.9316 42.1133 24.3154 42.1133C24.7812 42.1133 25.0332 41.835 25.0332 41.3193V38.2725H25.5605V41.3223C25.5605 42.125 25.0977 42.5996 24.3184 42.5996C23.6152 42.5996 23.123 42.1484 23.123 41.5068ZM27.3066 42.1191C27.7871 42.1191 28.1562 41.7822 28.1562 41.3428V41.0938L27.3418 41.1436C26.9316 41.1699 26.6973 41.3516 26.6973 41.6387C26.6973 41.9287 26.9404 42.1191 27.3066 42.1191ZM27.1924 42.5527C26.5859 42.5527 26.1787 42.1865 26.1787 41.6387C26.1787 41.1172 26.5801 40.7891 27.2832 40.748L28.1562 40.6982V40.4434C28.1562 40.0713 27.9102 39.8486 27.4883 39.8486C27.0957 39.8486 26.8496 40.0332 26.7852 40.332H26.293C26.3281 39.8047 26.7793 39.4004 27.5 39.4004C28.2148 39.4004 28.666 39.7871 28.666 40.3936V42.5H28.1826V41.9756H28.1709C27.9893 42.3242 27.6025 42.5527 27.1924 42.5527ZM31.8125 39.4531L30.6934 42.5H30.1719L29.0498 39.4531H29.5859L30.4268 41.958H30.4385L31.2822 39.4531H31.8125ZM33.1602 42.1191C33.6406 42.1191 34.0098 41.7822 34.0098 41.3428V41.0938L33.1953 41.1436C32.7852 41.1699 32.5508 41.3516 32.5508 41.6387C32.5508 41.9287 32.7939 42.1191 33.1602 42.1191ZM33.0459 42.5527C32.4395 42.5527 32.0322 42.1865 32.0322 41.6387C32.0322 41.1172 32.4336 40.7891 33.1367 40.748L34.0098 40.6982V40.4434C34.0098 40.0713 33.7637 39.8486 33.3418 39.8486C32.9492 39.8486 32.7031 40.0332 32.6387 40.332H32.1465C32.1816 39.8047 32.6328 39.4004 33.3535 39.4004C34.0684 39.4004 34.5195 39.7871 34.5195 40.3936V42.5H34.0361V41.9756H34.0244C33.8428 42.3242 33.4561 42.5527 33.0459 42.5527ZM35.0439 41.3369H35.5742C35.624 41.7939 36.0576 42.0957 36.6611 42.0957C37.2324 42.0957 37.6484 41.7939 37.6484 41.3779C37.6484 41.0205 37.3994 40.8008 36.8311 40.6543L36.2891 40.5137C35.5098 40.3145 35.1641 39.9717 35.1641 39.3975C35.1641 38.6943 35.7793 38.2021 36.6582 38.2021C37.499 38.2021 38.1084 38.7002 38.1318 39.4092H37.6045C37.5576 38.9551 37.1914 38.6768 36.6406 38.6768C36.0928 38.6768 35.7119 38.9609 35.7119 39.374C35.7119 39.6934 35.9463 39.8838 36.5205 40.0332L36.9629 40.1504C37.8389 40.3701 38.1934 40.707 38.1934 41.3135C38.1934 42.0869 37.584 42.5703 36.6113 42.5703C35.7148 42.5703 35.0938 42.084 35.0439 41.3369ZM41.2607 40.4521H40.7627C40.6895 40.1211 40.4316 39.8486 39.9834 39.8486C39.4561 39.8486 39.0986 40.2852 39.0986 40.9766C39.0986 41.6855 39.4619 42.1045 39.9893 42.1045C40.4053 42.1045 40.6777 41.8848 40.7656 41.5186H41.2666C41.1875 42.125 40.6777 42.5527 39.9863 42.5527C39.1426 42.5527 38.5801 41.958 38.5801 40.9766C38.5801 40.0156 39.1396 39.4004 39.9805 39.4004C40.7422 39.4004 41.1963 39.9043 41.2607 40.4521ZM41.7354 42.5V39.4531H42.2158V39.9512H42.2275C42.3271 39.6143 42.6084 39.4004 42.9658 39.4004C43.0537 39.4004 43.1299 39.415 43.1709 39.4209V39.916C43.1299 39.9014 43.0215 39.8867 42.8984 39.8867C42.5029 39.8867 42.2451 40.1709 42.2451 40.6016V42.5H41.7354ZM43.6133 42.5V39.4531H44.123V42.5H43.6133ZM43.8682 38.9404C43.6953 38.9404 43.5518 38.7969 43.5518 38.624C43.5518 38.4482 43.6953 38.3076 43.8682 38.3076C44.0439 38.3076 44.1875 38.4482 44.1875 38.624C44.1875 38.7969 44.0439 38.9404 43.8682 38.9404ZM46.291 39.4004C47.0674 39.4004 47.5947 40.0215 47.5947 40.9766C47.5947 41.9316 47.0703 42.5527 46.3027 42.5527C45.8662 42.5527 45.5146 42.3389 45.333 42.0049H45.3213V43.5166H44.8115V39.4531H45.2949V39.9688H45.3066C45.4941 39.626 45.8486 39.4004 46.291 39.4004ZM46.1914 42.1045C46.7334 42.1045 47.0732 41.668 47.0732 40.9766C47.0732 40.2881 46.7334 39.8486 46.1914 39.8486C45.6699 39.8486 45.3184 40.2998 45.3184 40.9766C45.3184 41.6562 45.6699 42.1045 46.1914 42.1045ZM48.2744 38.7178H48.7842V39.4531H49.376V39.8721H48.7842V41.6826C48.7842 41.9609 48.9014 42.0869 49.1621 42.0869C49.2207 42.0869 49.3379 42.0781 49.373 42.0723V42.5C49.3115 42.5146 49.1709 42.5234 49.0508 42.5234C48.4912 42.5234 48.2744 42.2949 48.2744 41.709V39.8721H47.8203V39.4531H48.2744V38.7178Z" fill="#8B949E"/>
<rect x="11" y="36.5" width="9" height="9" rx="4.5" fill="#F1E05A"/>
<rect x="11.5" y="37" width="8" height="8" rx="4" stroke="white" stroke-opacity="0.2"/>
<path d="M96.9375 41.6222V42.2493C96.9375 42.545 97.1615 42.785 97.4375 42.785H100.437C100.57 42.785 100.697 42.7286 100.791 42.6281C100.885 42.5277 100.937 42.3914 100.937 42.2493V41.6222C100.604 41.4958 100.323 41.2472 100.144 40.9202C99.9646 40.5932 99.8993 40.2089 99.9591 39.8353C100.019 39.4617 100.2 39.1227 100.471 38.8784C100.741 38.634 101.084 38.5 101.437 38.5C101.791 38.5 102.134 38.634 102.404 38.8784C102.675 39.1227 102.856 39.4617 102.916 39.8353C102.976 40.2089 102.91 40.5932 102.731 40.9202C102.552 41.2472 102.271 41.4958 101.937 41.6222V42.2493C101.937 42.6755 101.779 43.0843 101.498 43.3857C101.217 43.6871 100.835 43.8564 100.437 43.8564H99.4375V45.3763C99.7713 45.5027 100.053 45.7514 100.232 46.0786C100.411 46.4057 100.476 46.7901 100.417 47.164C100.357 47.5378 100.175 47.8769 99.9048 48.1214C99.6341 48.3659 99.2915 48.5 98.9375 48.5C98.5835 48.5 98.2409 48.3659 97.9702 48.1214C97.6995 47.8769 97.5183 47.5378 97.4584 47.164C97.3986 46.7901 97.464 46.4057 97.6432 46.0786C97.8224 45.7514 98.1037 45.5027 98.4375 45.3763V43.8564H97.4375C97.0397 43.8564 96.6581 43.6871 96.3768 43.3857C96.0955 43.0843 95.9375 42.6755 95.9375 42.2493V41.6222C95.6039 41.4958 95.3227 41.2472 95.1437 40.9202C94.9646 40.5932 94.8993 40.2089 94.9591 39.8353C95.0189 39.4617 95.2001 39.1227 95.4707 38.8784C95.7412 38.634 96.0837 38.5 96.4375 38.5C96.7913 38.5 97.1338 38.634 97.4043 38.8784C97.6749 39.1227 97.8561 39.4617 97.9159 39.8353C97.9757 40.2089 97.9104 40.5932 97.7313 40.9202C97.5523 41.2472 97.2711 41.4958 96.9375 41.6222ZM96.9375 40.1066C96.9375 39.9645 96.8848 39.8282 96.7911 39.7278C96.6973 39.6273 96.5701 39.5709 96.4375 39.5709C96.3049 39.5709 96.1777 39.6273 96.0839 39.7278C95.9902 39.8282 95.9375 39.9645 95.9375 40.1066C95.9375 40.2487 95.9902 40.3849 96.0839 40.4854C96.1777 40.5858 96.3049 40.6423 96.4375 40.6423C96.5701 40.6423 96.6973 40.5858 96.7911 40.4854C96.8848 40.3849 96.9375 40.2487 96.9375 40.1066ZM101.437 40.6423C101.57 40.6423 101.697 40.5858 101.791 40.4854C101.885 40.3849 101.937 40.2487 101.937 40.1066C101.937 39.9645 101.885 39.8282 101.791 39.7278C101.697 39.6273 101.57 39.5709 101.437 39.5709C101.305 39.5709 101.178 39.6273 101.084 39.7278C100.99 39.8282 100.937 39.9645 100.937 40.1066C100.937 40.2487 100.99 40.3849 101.084 40.4854C101.178 40.5858 101.305 40.6423 101.437 40.6423ZM99.4375 46.892C99.4375 46.7499 99.3848 46.6136 99.2911 46.5132C99.1973 46.4127 99.0701 46.3563 98.9375 46.3563C98.8049 46.3563 98.6777 46.4127 98.5839 46.5132C98.4902 46.6136 98.4375 46.7499 98.4375 46.892C98.4375 47.034 98.4902 47.1703 98.5839 47.2707C98.6777 47.3712 98.8049 47.4276 98.9375 47.4276C99.0701 47.4276 99.1973 47.3712 99.2911 47.2707C99.3848 47.1703 99.4375 47.034 99.4375 46.892Z" fill="#8B949E"/>
<path d="M109.653 44.5H105.639V43.843L107.214 42.142C107.514 41.818 107.766 41.53 107.97 41.278C108.18 41.026 108.339 40.78 108.447 40.54C108.555 40.294 108.609 40.027 108.609 39.739C108.609 39.385 108.513 39.118 108.321 38.938C108.129 38.752 107.877 38.659 107.565 38.659C107.277 38.659 107.022 38.713 106.8 38.821C106.578 38.929 106.353 39.079 106.125 39.271L105.702 38.74C105.864 38.596 106.038 38.467 106.224 38.353C106.41 38.239 106.614 38.149 106.836 38.083C107.064 38.017 107.31 37.984 107.574 37.984C107.952 37.984 108.276 38.053 108.546 38.191C108.822 38.329 109.035 38.527 109.185 38.785C109.335 39.037 109.41 39.34 109.41 39.694C109.41 39.946 109.371 40.186 109.293 40.414C109.221 40.636 109.116 40.855 108.978 41.071C108.84 41.287 108.675 41.506 108.483 41.728C108.297 41.95 108.087 42.184 107.853 42.43L106.62 43.744L106.629 43.78H109.653V44.5Z" fill="#8B949E"/>
</svg>
