<svg width="181" height="59" viewBox="0 0 181 59" fill="none" xmlns="http://www.w3.org/2000/svg">
<rect width="181" height="59" rx="15" fill="black"/>
<path d="M9 15.2222C9 14.6329 9.24144 14.0676 9.67121 13.6509C10.101 13.2341 10.6839 13 11.2917 13H19.3125C19.4948 13 19.6697 13.0702 19.7986 13.1953C19.9276 13.3203 20 13.4899 20 13.6667V24.7778C20 24.9546 19.9276 25.1242 19.7986 25.2492C19.6697 25.3742 19.4948 25.4444 19.3125 25.4444H17.0208C16.8385 25.4444 16.6636 25.3742 16.5347 25.2492C16.4058 25.1242 16.3333 24.9546 16.3333 24.7778C16.3333 24.601 16.4058 24.4314 16.5347 24.3064C16.6636 24.1813 16.8385 24.1111 17.0208 24.1111H18.625V22.3333H11.2917C11.1112 22.3334 10.9347 22.3851 10.7844 22.482C10.634 22.5789 10.5165 22.7166 10.4466 22.878C10.3767 23.0394 10.3575 23.2172 10.3914 23.3891C10.4253 23.561 10.5108 23.7194 10.6372 23.8444C10.7004 23.907 10.7502 23.981 10.7839 24.0623C10.8176 24.1436 10.8345 24.2304 10.8336 24.318C10.8326 24.4056 10.8139 24.4921 10.7785 24.5727C10.7431 24.6533 10.6916 24.7263 10.6271 24.7876C10.5626 24.8488 10.4862 24.8972 10.4024 24.9299C10.3186 24.9625 10.229 24.9789 10.1387 24.978C10.0484 24.9771 9.95915 24.9589 9.87607 24.9246C9.79299 24.8902 9.7177 24.8403 9.6545 24.7778C9.2344 24.3626 8.99935 23.8039 9 23.2222V15.2222ZM18.625 14.3333H11.2917C11.0486 14.3333 10.8154 14.427 10.6435 14.5937C10.4716 14.7604 10.375 14.9865 10.375 15.2222V21.1849C10.6641 21.0624 10.9762 20.9994 11.2917 21H18.625V14.3333ZM11.75 23.8889C11.75 23.83 11.7741 23.7734 11.8171 23.7318C11.8601 23.6901 11.9184 23.6667 11.9792 23.6667H15.1875C15.2483 23.6667 15.3066 23.6901 15.3495 23.7318C15.3925 23.7734 15.4167 23.83 15.4167 23.8889V26.7778C15.4167 26.819 15.4048 26.8595 15.3824 26.8946C15.3601 26.9297 15.3281 26.9581 15.29 26.9765C15.2519 26.995 15.2093 27.0028 15.1669 26.9991C15.1245 26.9954 15.084 26.9803 15.05 26.9556L13.7208 25.9893C13.6812 25.9603 13.633 25.9447 13.5833 25.9447C13.5337 25.9447 13.4854 25.9603 13.4458 25.9893L12.1167 26.9556C12.0826 26.9803 12.0421 26.9954 11.9997 26.9991C11.9574 27.0028 11.9147 26.995 11.8767 26.9765C11.8386 26.9581 11.8066 26.9297 11.7842 26.8946C11.7619 26.8595 11.75 26.819 11.75 26.7778V23.8889Z" fill="#8B949E"/>
<path d="M32.2422 23H31.0601V18.7197H31.0249L29.3022 22.9385H28.4673L26.7446 18.7197H26.7095V23H25.5273V16.6587H27.0654L28.8672 21.1543H28.9023L30.7041 16.6587H32.2422V23ZM34.9009 22.1475C35.459 22.1475 35.9204 21.7827 35.9204 21.2729V20.9302L34.9272 20.9917C34.4482 21.0269 34.1758 21.2422 34.1758 21.5762C34.1758 21.9277 34.4658 22.1475 34.9009 22.1475ZM34.479 23.0747C33.5825 23.0747 32.9014 22.4946 32.9014 21.6465C32.9014 20.7896 33.5605 20.293 34.7339 20.2227L35.9204 20.1523V19.8403C35.9204 19.4009 35.6128 19.146 35.1294 19.146C34.6504 19.146 34.3472 19.3833 34.2856 19.7305H33.1123C33.1606 18.8164 33.9385 18.188 35.1865 18.188C36.395 18.188 37.1816 18.812 37.1816 19.7612V23H35.9424V22.2793H35.916C35.6523 22.7803 35.0679 23.0747 34.479 23.0747ZM42.2925 20.0425H41.1016C41.0269 19.5459 40.6973 19.1943 40.1699 19.1943C39.5371 19.1943 39.1416 19.7305 39.1416 20.6401C39.1416 21.5674 39.5371 22.0947 40.1743 22.0947C40.6885 22.0947 41.0225 21.7871 41.1016 21.2729H42.2969C42.231 22.3848 41.4004 23.1011 40.1611 23.1011C38.7417 23.1011 37.8408 22.1782 37.8408 20.6401C37.8408 19.1284 38.7417 18.188 40.1523 18.188C41.4268 18.188 42.2354 18.9746 42.2925 20.0425ZM42.9473 23V16.6587H44.2085V19.1284H44.2349C44.4854 18.5352 44.9995 18.2012 45.7158 18.2012C46.7617 18.2012 47.3594 18.8779 47.3594 19.9678V23H46.0762V20.2402C46.0762 19.6338 45.7773 19.2646 45.1929 19.2646C44.5864 19.2646 44.2305 19.6909 44.2305 20.3105V23H42.9473ZM48.2031 23V18.2891H49.4863V23H48.2031ZM48.8447 17.7705C48.458 17.7705 48.1592 17.4761 48.1592 17.1069C48.1592 16.7334 48.458 16.4434 48.8447 16.4434C49.2314 16.4434 49.5303 16.7334 49.5303 17.1069C49.5303 17.4761 49.2314 17.7705 48.8447 17.7705ZM50.3433 23V18.2891H51.5825V19.1284H51.6089C51.8594 18.5439 52.356 18.2012 53.0811 18.2012C54.127 18.2012 54.7158 18.8604 54.7158 19.9634V23H53.4326V20.2314C53.4326 19.6162 53.1426 19.2646 52.5669 19.2646C51.9912 19.2646 51.6265 19.6865 51.6265 20.2974V23H50.3433ZM57.6426 19.1372C57.0801 19.1372 56.6758 19.5635 56.6318 20.1523H58.6313C58.605 19.5503 58.2139 19.1372 57.6426 19.1372ZM58.6489 21.5586H59.8267C59.686 22.4814 58.8423 23.1011 57.6777 23.1011C56.2275 23.1011 55.3574 22.1738 55.3574 20.6665C55.3574 19.1636 56.2363 18.188 57.6294 18.188C59.0005 18.188 59.8662 19.1152 59.8662 20.5479V20.939H56.6187V21.0181C56.6187 21.6904 57.0449 22.1519 57.6997 22.1519C58.1699 22.1519 58.5303 21.9189 58.6489 21.5586ZM63.5444 20.9829H60.6572V19.8623H63.5444V20.9829ZM68.7212 21.9014V23H64.6211V16.6587H65.9482V21.9014H68.7212ZM71.4414 19.1372C70.8789 19.1372 70.4746 19.5635 70.4307 20.1523H72.4302C72.4038 19.5503 72.0127 19.1372 71.4414 19.1372ZM72.4478 21.5586H73.6255C73.4849 22.4814 72.6411 23.1011 71.4766 23.1011C70.0264 23.1011 69.1562 22.1738 69.1562 20.6665C69.1562 19.1636 70.0352 18.188 71.4282 18.188C72.7993 18.188 73.665 19.1152 73.665 20.5479V20.939H70.4175V21.0181C70.4175 21.6904 70.8438 22.1519 71.4985 22.1519C71.9688 22.1519 72.3291 21.9189 72.4478 21.5586ZM76.1479 22.1475C76.7061 22.1475 77.1675 21.7827 77.1675 21.2729V20.9302L76.1743 20.9917C75.6953 21.0269 75.4229 21.2422 75.4229 21.5762C75.4229 21.9277 75.7129 22.1475 76.1479 22.1475ZM75.7261 23.0747C74.8296 23.0747 74.1484 22.4946 74.1484 21.6465C74.1484 20.7896 74.8076 20.293 75.981 20.2227L77.1675 20.1523V19.8403C77.1675 19.4009 76.8599 19.146 76.3765 19.146C75.8975 19.146 75.5942 19.3833 75.5327 19.7305H74.3594C74.4077 18.8164 75.1855 18.188 76.4336 18.188C77.6421 18.188 78.4287 18.812 78.4287 19.7612V23H77.1895V22.2793H77.1631C76.8994 22.7803 76.3149 23.0747 75.7261 23.0747ZM79.2593 23V18.2891H80.4985V19.1372H80.5249C80.6919 18.5396 81.0918 18.2144 81.6455 18.2144C81.7949 18.2144 81.9224 18.2363 82.0103 18.2627V19.3921C81.9048 19.3481 81.729 19.3174 81.5444 19.3174C80.9116 19.3174 80.5425 19.7041 80.5425 20.3677V23H79.2593ZM82.5376 23V18.2891H83.7769V19.1284H83.8032C84.0537 18.5439 84.5503 18.2012 85.2754 18.2012C86.3213 18.2012 86.9102 18.8604 86.9102 19.9634V23H85.627V20.2314C85.627 19.6162 85.3369 19.2646 84.7612 19.2646C84.1855 19.2646 83.8208 19.6865 83.8208 20.2974V23H82.5376ZM87.7451 23V18.2891H89.0283V23H87.7451ZM88.3867 17.7705C88 17.7705 87.7012 17.4761 87.7012 17.1069C87.7012 16.7334 88 16.4434 88.3867 16.4434C88.7734 16.4434 89.0723 16.7334 89.0723 17.1069C89.0723 17.4761 88.7734 17.7705 88.3867 17.7705ZM89.8853 23V18.2891H91.1245V19.1284H91.1509C91.4014 18.5439 91.8979 18.2012 92.623 18.2012C93.6689 18.2012 94.2578 18.8604 94.2578 19.9634V23H92.9746V20.2314C92.9746 19.6162 92.6846 19.2646 92.1089 19.2646C91.5332 19.2646 91.1685 19.6865 91.1685 20.2974V23H89.8853ZM97.2461 21.998C97.8877 21.998 98.2964 21.4883 98.2964 20.6357C98.2964 19.7876 97.8877 19.2427 97.2461 19.2427C96.6133 19.2427 96.2134 19.7788 96.2134 20.6357C96.2134 21.4971 96.6089 21.998 97.2461 21.998ZM97.2241 24.7754C95.9849 24.7754 95.1455 24.1733 95.0444 23.334H96.3013C96.4023 23.6592 96.7715 23.8833 97.2593 23.8833C97.9229 23.8833 98.292 23.5142 98.292 22.9692V22.1431H98.2656C98.0459 22.644 97.4922 22.9868 96.811 22.9868C95.6597 22.9868 94.8994 22.0991 94.8994 20.627C94.8994 19.1328 95.6377 18.2144 96.833 18.2144C97.5098 18.2144 98.0415 18.5703 98.2876 19.1108H98.3096V18.2891H99.5752V22.9341C99.5752 24.0591 98.6348 24.7754 97.2241 24.7754Z" fill="#58A6FF"/>
<rect x="109.5" y="12.5" width="33" height="14" rx="7" stroke="#30363D"/>
<path d="M116.52 16.3633H118.633C119.727 16.3633 120.488 17.1172 120.488 18.2148C120.488 19.3164 119.711 20.0742 118.605 20.0742H117.395V22H116.52V16.3633ZM117.395 17.1016V19.3398H118.398C119.16 19.3398 119.594 18.9297 119.594 18.2188C119.594 17.5078 119.16 17.1016 118.402 17.1016H117.395ZM124.676 17.8906V22H123.867V21.3047H123.848C123.621 21.7969 123.203 22.0742 122.574 22.0742C121.68 22.0742 121.133 21.4922 121.133 20.5508V17.8906H121.977V20.3867C121.977 21.0117 122.273 21.3477 122.855 21.3477C123.465 21.3477 123.832 20.9258 123.832 20.2852V17.8906H124.676ZM127.699 22.0703C127.098 22.0703 126.633 21.7773 126.379 21.3008H126.363V22H125.543V16.3633H126.387V18.5898H126.406C126.652 18.1133 127.121 17.8242 127.703 17.8242C128.738 17.8242 129.414 18.6445 129.414 19.9453C129.414 21.25 128.742 22.0703 127.699 22.0703ZM127.473 18.5352C126.832 18.5352 126.383 19.0977 126.383 19.9453C126.383 20.8008 126.832 21.3555 127.473 21.3555C128.137 21.3555 128.547 20.8164 128.547 19.9453C128.547 19.082 128.137 18.5352 127.473 18.5352ZM130.105 22V16.3633H130.949V22H130.105ZM131.844 22V17.8906H132.688V22H131.844ZM132.266 17.2891C131.996 17.2891 131.777 17.0742 131.777 16.8086C131.777 16.5391 131.996 16.3242 132.266 16.3242C132.539 16.3242 132.758 16.5391 132.758 16.8086C132.758 17.0742 132.539 17.2891 132.266 17.2891ZM137.078 19.3047H136.273C136.188 18.8672 135.859 18.5195 135.309 18.5195C134.656 18.5195 134.227 19.0625 134.227 19.9453C134.227 20.8477 134.66 21.3711 135.316 21.3711C135.836 21.3711 136.176 21.0859 136.273 20.6094H137.086C136.996 21.4844 136.297 22.0781 135.309 22.0781C134.133 22.0781 133.367 21.2734 133.367 19.9453C133.367 18.6406 134.133 17.8164 135.301 17.8164C136.359 17.8164 137.004 18.4961 137.078 19.3047Z" fill="#8B949E"/>
<path d="M168 24.5C167.735 24.5 167.48 24.3946 167.293 24.2071C167.105 24.0196 167 23.7652 167 23.5C167 23.2348 167.105 22.9804 167.293 22.7929C167.48 22.6054 167.735 22.5 168 22.5C168.265 22.5 168.52 22.6054 168.707 22.7929C168.895 22.9804 169 23.2348 169 23.5C169 23.7652 168.895 24.0196 168.707 24.2071C168.52 24.3946 168.265 24.5 168 24.5ZM168 20.5C167.735 20.5 167.48 20.3946 167.293 20.2071C167.105 20.0196 167 19.7652 167 19.5C167 19.2348 167.105 18.9804 167.293 18.7929C167.48 18.6054 167.735 18.5 168 18.5C168.265 18.5 168.52 18.6054 168.707 18.7929C168.895 18.9804 169 19.2348 169 19.5C169 19.7652 168.895 20.0196 168.707 20.2071C168.52 20.3946 168.265 20.5 168 20.5ZM164 24.5C163.735 24.5 163.48 24.3946 163.293 24.2071C163.105 24.0196 163 23.7652 163 23.5C163 23.2348 163.105 22.9804 163.293 22.7929C163.48 22.6054 163.735 22.5 164 22.5C164.265 22.5 164.52 22.6054 164.707 22.7929C164.895 22.9804 165 23.2348 165 23.5C165 23.7652 164.895 24.0196 164.707 24.2071C164.52 24.3946 164.265 24.5 164 24.5ZM169 15.5C169 15.7652 168.895 16.0196 168.707 16.2071C168.52 16.3946 168.265 16.5 168 16.5C167.735 16.5 167.48 16.3946 167.293 16.2071C167.105 16.0196 167 15.7652 167 15.5C167 15.2348 167.105 14.9804 167.293 14.7929C167.48 14.6054 167.735 14.5 168 14.5C168.265 14.5 168.52 14.6054 168.707 14.7929C168.895 14.9804 169 15.2348 169 15.5ZM165 19.5C165 19.7652 164.895 20.0196 164.707 20.2071C164.52 20.3946 164.265 20.5 164 20.5C163.735 20.5 163.48 20.3946 163.293 20.2071C163.105 20.0196 163 19.7652 163 19.5C163 19.2348 163.105 18.9804 163.293 18.7929C163.48 18.6054 163.735 18.5 164 18.5C164.265 18.5 164.52 18.6054 164.707 18.7929C164.895 18.9804 165 19.2348 165 19.5ZM164 16.5C163.735 16.5 163.48 16.3946 163.293 16.2071C163.105 16.0196 163 15.7652 163 15.5C163 15.2348 163.105 14.9804 163.293 14.7929C163.48 14.6054 163.735 14.5 164 14.5C164.265 14.5 164.52 14.6054 164.707 14.7929C164.895 14.9804 165 15.2348 165 15.5C165 15.7652 164.895 16.0196 164.707 16.2071C164.52 16.3946 164.265 16.5 164 16.5Z" fill="#8B949E"/>
<path d="M23.123 41.5068H23.6475C23.6592 41.8643 23.9316 42.1133 24.3154 42.1133C24.7812 42.1133 25.0332 41.835 25.0332 41.3193V38.2725H25.5605V41.3223C25.5605 42.125 25.0977 42.5996 24.3184 42.5996C23.6152 42.5996 23.123 42.1484 23.123 41.5068ZM28.8037 39.4531V42.5H28.3203V42.0049H28.3086C28.127 42.3564 27.8105 42.5527 27.3418 42.5527C26.6768 42.5527 26.2871 42.1221 26.2871 41.4307V39.4531H26.7969V41.3398C26.7969 41.835 27.0283 42.1016 27.5 42.1016C27.9951 42.1016 28.2939 41.7617 28.2939 41.2432V39.4531H28.8037ZM30.9453 39.4004C31.7217 39.4004 32.249 40.0215 32.249 40.9766C32.249 41.9316 31.7246 42.5527 30.957 42.5527C30.5205 42.5527 30.1689 42.3389 29.9873 42.0049H29.9756V43.5166H29.4658V39.4531H29.9492V39.9688H29.9609C30.1484 39.626 30.5029 39.4004 30.9453 39.4004ZM30.8457 42.1045C31.3877 42.1045 31.7275 41.668 31.7275 40.9766C31.7275 40.2881 31.3877 39.8486 30.8457 39.8486C30.3242 39.8486 29.9727 40.2998 29.9727 40.9766C29.9727 41.6562 30.3242 42.1045 30.8457 42.1045ZM32.9287 43.6396C32.8672 43.6396 32.7646 43.6338 32.709 43.6221V43.1943C32.7646 43.2061 32.8438 43.209 32.9082 43.209C33.1924 43.209 33.3506 43.0713 33.4678 42.7168L33.5381 42.5029L32.4131 39.4531H32.958L33.8018 41.9902H33.8105L34.6543 39.4531H35.1904L33.9922 42.7139C33.7314 43.4258 33.4795 43.6396 32.9287 43.6396ZM35.7588 38.7178H36.2686V39.4531H36.8604V39.8721H36.2686V41.6826C36.2686 41.9609 36.3857 42.0869 36.6465 42.0869C36.7051 42.0869 36.8223 42.0781 36.8574 42.0723V42.5C36.7959 42.5146 36.6553 42.5234 36.5352 42.5234C35.9756 42.5234 35.7588 42.2949 35.7588 41.709V39.8721H35.3047V39.4531H35.7588V38.7178ZM38.5391 39.8428C38.0615 39.8428 37.7275 40.209 37.6953 40.7158H39.3506C39.3389 40.2061 39.0195 39.8428 38.5391 39.8428ZM39.3389 41.627H39.8398C39.752 42.1602 39.2363 42.5527 38.5713 42.5527C37.6982 42.5527 37.168 41.9463 37.168 40.9883C37.168 40.042 37.707 39.4004 38.5479 39.4004C39.3711 39.4004 39.8779 39.998 39.8779 40.9209V41.1143H37.6924V41.1436C37.6924 41.7266 38.0352 42.1104 38.583 42.1104C38.9697 42.1104 39.2539 41.9141 39.3389 41.627ZM40.3936 42.5V39.4531H40.874V39.9512H40.8857C40.9854 39.6143 41.2666 39.4004 41.624 39.4004C41.7119 39.4004 41.7881 39.415 41.8291 39.4209V39.916C41.7881 39.9014 41.6797 39.8867 41.5566 39.8867C41.1611 39.8867 40.9033 40.1709 40.9033 40.6016V42.5H40.3936ZM44.0762 42.5H43.5547V38.2725H44.0674L46.3818 41.5918H46.4082V38.2725H46.9297V42.5H46.417L44.1025 39.1924H44.0762V42.5ZM48.9336 42.5527C48.0898 42.5527 47.5215 41.9463 47.5215 40.9766C47.5215 40.0039 48.0898 39.4004 48.9336 39.4004C49.7744 39.4004 50.3428 40.0039 50.3428 40.9766C50.3428 41.9463 49.7744 42.5527 48.9336 42.5527ZM48.9336 42.1045C49.4727 42.1045 49.8242 41.6943 49.8242 40.9766C49.8242 40.2588 49.4727 39.8486 48.9336 39.8486C48.3945 39.8486 48.04 40.2588 48.04 40.9766C48.04 41.6943 48.3945 42.1045 48.9336 42.1045ZM51.0225 38.7178H51.5322V39.4531H52.124V39.8721H51.5322V41.6826C51.5322 41.9609 51.6494 42.0869 51.9102 42.0869C51.9688 42.0869 52.0859 42.0781 52.1211 42.0723V42.5C52.0596 42.5146 51.9189 42.5234 51.7988 42.5234C51.2393 42.5234 51.0225 42.2949 51.0225 41.709V39.8721H50.5684V39.4531H51.0225V38.7178ZM53.8027 39.8428C53.3252 39.8428 52.9912 40.209 52.959 40.7158H54.6143C54.6025 40.2061 54.2832 39.8428 53.8027 39.8428ZM54.6025 41.627H55.1035C55.0156 42.1602 54.5 42.5527 53.835 42.5527C52.9619 42.5527 52.4316 41.9463 52.4316 40.9883C52.4316 40.042 52.9707 39.4004 53.8115 39.4004C54.6348 39.4004 55.1416 39.998 55.1416 40.9209V41.1143H52.9561V41.1436C52.9561 41.7266 53.2988 42.1104 53.8467 42.1104C54.2334 42.1104 54.5176 41.9141 54.6025 41.627ZM57.1719 42.5527C56.7266 42.5527 56.3779 42.3359 56.1816 41.9844H56.1699V42.5H55.6836V38.2725H56.1934V39.9629H56.2051C56.3955 39.6143 56.75 39.4004 57.1807 39.4004C57.9482 39.4004 58.4668 40.0215 58.4668 40.9766C58.4668 41.9346 57.9512 42.5527 57.1719 42.5527ZM57.0723 39.8486C56.5566 39.8486 56.1904 40.2998 56.1904 40.9766C56.1904 41.6562 56.5566 42.1045 57.0723 42.1045C57.6113 42.1045 57.9453 41.6738 57.9453 40.9766C57.9453 40.2852 57.6113 39.8486 57.0723 39.8486ZM60.248 42.5527C59.4043 42.5527 58.8359 41.9463 58.8359 40.9766C58.8359 40.0039 59.4043 39.4004 60.248 39.4004C61.0889 39.4004 61.6572 40.0039 61.6572 40.9766C61.6572 41.9463 61.0889 42.5527 60.248 42.5527ZM60.248 42.1045C60.7871 42.1045 61.1387 41.6943 61.1387 40.9766C61.1387 40.2588 60.7871 39.8486 60.248 39.8486C59.709 39.8486 59.3545 40.2588 59.3545 40.9766C59.3545 41.6943 59.709 42.1045 60.248 42.1045ZM63.4355 42.5527C62.5918 42.5527 62.0234 41.9463 62.0234 40.9766C62.0234 40.0039 62.5918 39.4004 63.4355 39.4004C64.2764 39.4004 64.8447 40.0039 64.8447 40.9766C64.8447 41.9463 64.2764 42.5527 63.4355 42.5527ZM63.4355 42.1045C63.9746 42.1045 64.3262 41.6943 64.3262 40.9766C64.3262 40.2588 63.9746 39.8486 63.4355 39.8486C62.8965 39.8486 62.542 40.2588 62.542 40.9766C62.542 41.6943 62.8965 42.1045 63.4355 42.1045ZM65.8965 40.8066L67.2441 39.4531H67.8623L66.541 40.7686L67.9033 42.5H67.3115L66.1807 41.082L65.8965 41.3516V42.5H65.3867V38.2725H65.8965V40.8066Z" fill="#8B949E"/>
<rect x="11" y="36.5" width="9" height="9" rx="4.5" fill="#DA5B0B"/>
<rect x="11.5" y="37" width="8" height="8" rx="4" stroke="white" stroke-opacity="0.2"/>
<path d="M96.9375 41.6222V42.2493C96.9375 42.545 97.1615 42.785 97.4375 42.785H100.437C100.57 42.785 100.697 42.7286 100.791 42.6281C100.885 42.5277 100.937 42.3914 100.937 42.2493V41.6222C100.604 41.4958 100.323 41.2472 100.144 40.9202C99.9646 40.5932 99.8993 40.2089 99.9591 39.8353C100.019 39.4617 100.2 39.1227 100.471 38.8784C100.741 38.634 101.084 38.5 101.437 38.5C101.791 38.5 102.134 38.634 102.404 38.8784C102.675 39.1227 102.856 39.4617 102.916 39.8353C102.976 40.2089 102.91 40.5932 102.731 40.9202C102.552 41.2472 102.271 41.4958 101.937 41.6222V42.2493C101.937 42.6755 101.779 43.0843 101.498 43.3857C101.217 43.6871 100.835 43.8564 100.437 43.8564H99.4375V45.3763C99.7713 45.5027 100.053 45.7514 100.232 46.0786C100.411 46.4057 100.476 46.7901 100.417 47.164C100.357 47.5378 100.175 47.8769 99.9048 48.1214C99.6341 48.3659 99.2915 48.5 98.9375 48.5C98.5835 48.5 98.2409 48.3659 97.9702 48.1214C97.6995 47.8769 97.5183 47.5378 97.4584 47.164C97.3986 46.7901 97.464 46.4057 97.6432 46.0786C97.8224 45.7514 98.1037 45.5027 98.4375 45.3763V43.8564H97.4375C97.0397 43.8564 96.6581 43.6871 96.3768 43.3857C96.0955 43.0843 95.9375 42.6755 95.9375 42.2493V41.6222C95.6039 41.4958 95.3227 41.2472 95.1437 40.9202C94.9646 40.5932 94.8993 40.2089 94.9591 39.8353C95.0189 39.4617 95.2001 39.1227 95.4707 38.8784C95.7412 38.634 96.0837 38.5 96.4375 38.5C96.7913 38.5 97.1338 38.634 97.4043 38.8784C97.6749 39.1227 97.8561 39.4617 97.9159 39.8353C97.9757 40.2089 97.9104 40.5932 97.7313 40.9202C97.5523 41.2472 97.2711 41.4958 96.9375 41.6222ZM96.9375 40.1066C96.9375 39.9645 96.8848 39.8282 96.7911 39.7278C96.6973 39.6273 96.5701 39.5709 96.4375 39.5709C96.3049 39.5709 96.1777 39.6273 96.0839 39.7278C95.9902 39.8282 95.9375 39.9645 95.9375 40.1066C95.9375 40.2487 95.9902 40.3849 96.0839 40.4854C96.1777 40.5858 96.3049 40.6423 96.4375 40.6423C96.5701 40.6423 96.6973 40.5858 96.7911 40.4854C96.8848 40.3849 96.9375 40.2487 96.9375 40.1066ZM101.437 40.6423C101.57 40.6423 101.697 40.5858 101.791 40.4854C101.885 40.3849 101.937 40.2487 101.937 40.1066C101.937 39.9645 101.885 39.8282 101.791 39.7278C101.697 39.6273 101.57 39.5709 101.437 39.5709C101.305 39.5709 101.178 39.6273 101.084 39.7278C100.99 39.8282 100.937 39.9645 100.937 40.1066C100.937 40.2487 100.99 40.3849 101.084 40.4854C101.178 40.5858 101.305 40.6423 101.437 40.6423ZM99.4375 46.892C99.4375 46.7499 99.3848 46.6136 99.2911 46.5132C99.1973 46.4127 99.0701 46.3563 98.9375 46.3563C98.8049 46.3563 98.6777 46.4127 98.5839 46.5132C98.4902 46.6136 98.4375 46.7499 98.4375 46.892C98.4375 47.034 98.4902 47.1703 98.5839 47.2707C98.6777 47.3712 98.8049 47.4276 98.9375 47.4276C99.0701 47.4276 99.1973 47.3712 99.2911 47.2707C99.3848 47.1703 99.4375 47.034 99.4375 46.892Z" fill="#8B949E"/>
<path d="M109.653 44.5H105.639V43.843L107.214 42.142C107.514 41.818 107.766 41.53 107.97 41.278C108.18 41.026 108.339 40.78 108.447 40.54C108.555 40.294 108.609 40.027 108.609 39.739C108.609 39.385 108.513 39.118 108.321 38.938C108.129 38.752 107.877 38.659 107.565 38.659C107.277 38.659 107.022 38.713 106.8 38.821C106.578 38.929 106.353 39.079 106.125 39.271L105.702 38.74C105.864 38.596 106.038 38.467 106.224 38.353C106.41 38.239 106.614 38.149 106.836 38.083C107.064 38.017 107.31 37.984 107.574 37.984C107.952 37.984 108.276 38.053 108.546 38.191C108.822 38.329 109.035 38.527 109.185 38.785C109.335 39.037 109.41 39.34 109.41 39.694C109.41 39.946 109.371 40.186 109.293 40.414C109.221 40.636 109.116 40.855 108.978 41.071C108.84 41.287 108.675 41.506 108.483 41.728C108.297 41.95 108.087 42.184 107.853 42.43L106.62 43.744L106.629 43.78H109.653V44.5Z" fill="#8B949E"/>
</svg>
