<svg width="52" height="52" viewBox="0 0 52 52" fill="none" xmlns="http://www.w3.org/2000/svg">
<path fill-rule="evenodd" clip-rule="evenodd" d="M39.2806 0.21582C46.7338 0.21582 51.5684 5.05035 51.5684 12.5036V39.4964C51.5684 46.9496 46.7338 51.7842 39.2806 51.7842H12.2878C4.83453 51.7842 0 46.9496 0 39.4964V12.5036C0 5.05035 4.83453 0.21582 12.2878 0.21582H39.2806Z" fill="#1B1E2A" fill-opacity="0.38"/>
<path d="M43.6786 3.5H8.32143C5.6596 3.5 3.5 5.6596 3.5 8.32143V43.6786C3.5 46.3404 5.6596 48.5 8.32143 48.5H43.6786C46.3404 48.5 48.5 46.3404 48.5 43.6786V8.32143C48.5 5.6596 46.3404 3.5 43.6786 3.5ZM27.9888 38.596C27.9888 42.9754 25.4174 44.9743 21.6708 44.9743C18.2857 44.9743 16.327 43.2266 15.3225 41.1071L18.7679 39.0279C19.4308 40.2031 20.0335 41.1975 21.49 41.1975C22.8761 41.1975 23.76 40.6551 23.76 38.5357V24.1618H27.9888V38.596ZM37.9933 44.9743C34.0658 44.9743 31.5246 43.106 30.2891 40.6551L33.7344 38.6663C34.6384 40.1429 35.8237 41.2377 37.9029 41.2377C39.6507 41.2377 40.7757 40.3638 40.7757 39.1484C40.7757 37.702 39.6306 37.1897 37.692 36.3359L36.6373 35.8839C33.5837 34.5882 31.5647 32.9509 31.5647 29.5056C31.5647 26.3315 33.9855 23.9208 37.7522 23.9208C40.4442 23.9208 42.3728 24.8549 43.7589 27.3058L40.4643 29.4152C39.7411 28.1194 38.9576 27.6071 37.7422 27.6071C36.5067 27.6071 35.7232 28.3906 35.7232 29.4152C35.7232 30.6808 36.5067 31.1931 38.3248 31.9866L39.3795 32.4386C42.9754 33.9754 44.9944 35.5525 44.9944 39.0882C44.9944 42.885 42.0011 44.9743 37.9933 44.9743Z" fill="#FFD53E"/>
</svg>
