<svg width="52" height="52" viewBox="0 0 52 52" fill="none" xmlns="http://www.w3.org/2000/svg">
<path fill-rule="evenodd" clip-rule="evenodd" d="M39.2806 0.21582C46.7338 0.21582 51.5684 5.05035 51.5684 12.5036V39.4964C51.5684 46.9496 46.7338 51.7842 39.2806 51.7842H12.2878C4.83453 51.7842 0 46.9496 0 39.4964V12.5036C0 5.05035 4.83453 0.21582 12.2878 0.21582H39.2806Z" fill="black"/>
<path d="M25.5273 3.50035C23.6918 3.50904 21.9397 3.66512 20.3972 3.93814C15.8541 4.7407 15.0298 6.42058 15.0298 9.51907V13.6105H25.7651V14.9743H11.0005C7.8807 14.9743 5.14872 16.8494 4.29399 20.4179C3.30797 24.5067 3.2645 27.0587 4.29399 31.3284C5.05698 34.5069 6.87947 36.7711 9.99969 36.7711H13.6912V31.8662C13.6912 28.3226 16.7566 25.1971 20.3977 25.1971H31.1209C34.1059 25.1971 36.4883 22.739 36.4883 19.7418V9.5195C36.4883 6.6097 34.0337 4.4242 31.1209 3.93858C29.2758 3.63164 27.3624 3.49209 25.5273 3.50035ZM19.7216 6.79099C20.8303 6.79099 21.7363 7.71136 21.7363 8.84346C21.7363 9.97077 20.8307 10.8825 19.7216 10.8825C18.6087 10.8825 17.7074 9.97077 17.7074 8.84346C17.707 7.71136 18.6087 6.79099 19.7216 6.79099Z" fill="#006EB0"/>
<path d="M37.8255 14.9746V19.7421C37.8255 23.4375 34.6918 26.5481 31.119 26.5481H20.3958C17.4586 26.5481 15.0283 29.0623 15.0283 32.0038V42.227C15.0283 45.136 17.5577 46.8476 20.3958 47.6819C23.7938 48.6805 27.0527 48.8614 31.119 47.6819C33.8214 46.8989 36.4864 45.3242 36.4864 42.227V38.1352H25.7637V36.7709H41.8548C44.9745 36.7709 46.1379 34.595 47.2231 31.3282C48.3439 27.9654 48.2956 24.7313 47.2231 20.4177C46.4518 17.3114 44.9793 14.9741 41.8548 14.9741L37.8255 14.9746ZM31.7941 40.8628C32.9075 40.8628 33.8088 41.7745 33.8088 42.9027C33.8088 44.0339 32.9071 44.9542 31.7941 44.9542C30.6855 44.9542 29.7799 44.0339 29.7799 42.9027C29.7799 41.7745 30.6855 40.8628 31.7941 40.8628Z" fill="#FFD53E"/>
</svg>
