<svg width="139" height="54" viewBox="0 0 139 54" fill="none" xmlns="http://www.w3.org/2000/svg">
<g filter="url(#filter0_d_443_495)">
<path d="M4 18.037C20.6434 17.736 21.9399 29.2896 33.9648 34.0061C39.1853 36.0537 46.7323 37.0614 47.5 39.3291C48.9607 43.6439 55.5137 30.1371 58.691 32.7991C61.3177 34.9998 66.6169 27.5 70 27.5C71.2905 27.5 69.5663 38.5533 70.8795 39.3291C75.5857 42.1094 99.9248 15.9269 100.181 24.6599C100.267 27.5859 103.228 31.7527 106.729 31.9326C111.327 32.1688 115.088 30.9676 117.887 35.0274C120.415 38.6933 124.071 40.8765 128.941 40.8765C132.089 40.8765 131.858 37.6288 135 41.0312" stroke="url(#paint0_linear_443_495)" stroke-width="2" stroke-linecap="round"/>
</g>
<g filter="url(#filter1_d_443_495)">
<path d="M19 18C30.5 25.5 21.9399 33.2896 33.9648 38.0061C39.1853 40.0537 48.7907 27.8931 49.5584 30.1608C51.2366 35.118 67.8515 41.5403 70.8795 43.3291C75.5857 46.1094 97.244 25.7671 97.5 34.5C97.5858 37.426 103.228 35.7528 106.729 35.9326C111.327 36.1688 116.2 21.4402 119 25.5C121.528 29.1659 124.071 44.8765 128.941 44.8765C132.089 44.8765 131.858 41.6288 135 45.0313" stroke="url(#paint1_linear_443_495)" stroke-width="2" stroke-linecap="round"/>
</g>
<path d="M6 3.46875L14 11.4688M12.6667 3.46875H6V10.1354" stroke="white" stroke-linecap="round" stroke-linejoin="round"/>
<path d="M25.7119 3.85938H26.9326V8.61035C26.9326 9.15072 26.8154 9.60319 26.5811 9.96777C26.3467 10.3324 26.0277 10.6074 25.624 10.793C25.2236 10.9753 24.776 11.0664 24.2812 11.0664C23.7702 11.0664 23.3145 10.9753 22.9141 10.793C22.5137 10.6074 22.1979 10.3324 21.9668 9.96777C21.7389 9.60319 21.625 9.15072 21.625 8.61035V3.85938H22.8457V8.61035C22.8457 8.95215 22.9043 9.23372 23.0215 9.45508C23.1387 9.67318 23.3047 9.83431 23.5195 9.93848C23.7344 10.0426 23.9883 10.0947 24.2812 10.0947C24.5742 10.0947 24.8265 10.0426 25.0381 9.93848C25.2529 9.83431 25.4189 9.67318 25.5361 9.45508C25.6533 9.23372 25.7119 8.95215 25.7119 8.61035V3.85938ZM29.4301 6.70117V13H28.2533V5.68555H29.3373L29.4301 6.70117ZM32.8725 8.27832V8.38086C32.8725 8.76497 32.8269 9.12142 32.7357 9.4502C32.6479 9.77572 32.516 10.0605 32.3402 10.3047C32.1677 10.5456 31.9545 10.7327 31.7006 10.8662C31.4467 10.9997 31.1537 11.0664 30.8217 11.0664C30.4929 11.0664 30.2048 11.0062 29.9574 10.8857C29.7133 10.762 29.5066 10.5879 29.3373 10.3633C29.168 10.1387 29.0313 9.875 28.9271 9.57227C28.8262 9.26628 28.7546 8.93099 28.7123 8.56641V8.1709C28.7546 7.78353 28.8262 7.43197 28.9271 7.11621C29.0313 6.80046 29.168 6.52865 29.3373 6.30078C29.5066 6.07292 29.7133 5.89714 29.9574 5.77344C30.2016 5.64974 30.4864 5.58789 30.8119 5.58789C31.1439 5.58789 31.4385 5.65299 31.6957 5.7832C31.9529 5.91016 32.1693 6.09245 32.3451 6.33008C32.5209 6.56445 32.6527 6.84766 32.7406 7.17969C32.8285 7.50846 32.8725 7.87467 32.8725 8.27832ZM31.6957 8.38086V8.27832C31.6957 8.03418 31.6729 7.80794 31.6273 7.59961C31.5818 7.38802 31.5102 7.20247 31.4125 7.04297C31.3148 6.88346 31.1895 6.75977 31.0365 6.67188C30.8868 6.58073 30.7061 6.53516 30.4945 6.53516C30.2862 6.53516 30.1072 6.57096 29.9574 6.64258C29.8077 6.71094 29.6824 6.80697 29.5814 6.93066C29.4805 7.05436 29.4024 7.19922 29.3471 7.36523C29.2917 7.52799 29.2527 7.7054 29.2299 7.89746V8.84473C29.2689 9.0791 29.3357 9.29395 29.4301 9.48926C29.5245 9.68457 29.6579 9.84082 29.8305 9.95801C30.0062 10.0719 30.2309 10.1289 30.5043 10.1289C30.7159 10.1289 30.8965 10.0833 31.0463 9.99219C31.196 9.90104 31.3181 9.77572 31.4125 9.61621C31.5102 9.45345 31.5818 9.26628 31.6273 9.05469C31.6729 8.8431 31.6957 8.61849 31.6957 8.38086ZM35.409 9.79688L36.6297 5.68555H37.3816L37.1766 6.91602L35.9461 10.9688H35.2723L35.409 9.79688ZM34.6912 5.68555L35.6434 9.81641L35.7215 10.9688H34.9695L33.5389 5.68555H34.6912ZM38.5242 9.76758L39.4471 5.68555H40.5945L39.1687 10.9688H38.4168L38.5242 9.76758ZM37.5086 5.68555L38.7146 9.74805L38.866 10.9688H38.1922L36.9471 6.91113L36.742 5.68555H37.5086ZM44.4738 9.90918V7.38965C44.4738 7.20085 44.4396 7.03809 44.3713 6.90137C44.3029 6.76465 44.1988 6.65885 44.0588 6.58398C43.9221 6.50911 43.7495 6.47168 43.5412 6.47168C43.3492 6.47168 43.1831 6.50423 43.0432 6.56934C42.9032 6.63444 42.7941 6.72233 42.716 6.83301C42.6379 6.94368 42.5988 7.06901 42.5988 7.20898H41.427C41.427 7.00065 41.4774 6.79883 41.5783 6.60352C41.6792 6.4082 41.8257 6.23405 42.0178 6.08105C42.2098 5.92806 42.4393 5.80762 42.7062 5.71973C42.9732 5.63184 43.2727 5.58789 43.6047 5.58789C44.0018 5.58789 44.3534 5.65462 44.6594 5.78809C44.9686 5.92155 45.2111 6.12337 45.3869 6.39355C45.5659 6.66048 45.6555 6.99577 45.6555 7.39941V9.74805C45.6555 9.98893 45.6717 10.2054 45.7043 10.3975C45.7401 10.5863 45.7906 10.7507 45.8557 10.8906V10.9688H44.6496C44.5943 10.8418 44.5503 10.6807 44.5178 10.4854C44.4885 10.2868 44.4738 10.0947 44.4738 9.90918ZM44.6447 7.75586L44.6545 8.4834H43.8098C43.5917 8.4834 43.3996 8.50456 43.2336 8.54688C43.0676 8.58594 42.9292 8.64453 42.8186 8.72266C42.7079 8.80078 42.6249 8.89518 42.5695 9.00586C42.5142 9.11654 42.4865 9.24186 42.4865 9.38184C42.4865 9.52181 42.5191 9.65039 42.5842 9.76758C42.6493 9.88151 42.7437 9.97103 42.8674 10.0361C42.9943 10.1012 43.1473 10.1338 43.3264 10.1338C43.5673 10.1338 43.7772 10.085 43.9562 9.9873C44.1385 9.88639 44.2818 9.76432 44.3859 9.62109C44.4901 9.47461 44.5454 9.33626 44.552 9.20605L44.9328 9.72852C44.8937 9.86198 44.827 10.0052 44.7326 10.1582C44.6382 10.3112 44.5145 10.4577 44.3615 10.5977C44.2118 10.7344 44.0311 10.8467 43.8195 10.9346C43.6112 11.0225 43.3703 11.0664 43.0969 11.0664C42.7518 11.0664 42.4442 10.998 42.174 10.8613C41.9038 10.7214 41.6923 10.5342 41.5393 10.2998C41.3863 10.0622 41.3098 9.79362 41.3098 9.49414C41.3098 9.21419 41.3618 8.9668 41.466 8.75195C41.5734 8.53385 41.7297 8.35156 41.9348 8.20508C42.1431 8.05859 42.397 7.94792 42.6965 7.87305C42.996 7.79492 43.3378 7.75586 43.7219 7.75586H44.6447ZM48.1676 6.69141V10.9688H46.9908V5.68555H48.1139L48.1676 6.69141ZM49.7838 5.65137L49.774 6.74512C49.7024 6.7321 49.6243 6.72233 49.5396 6.71582C49.4583 6.70931 49.3769 6.70605 49.2955 6.70605C49.0937 6.70605 48.9163 6.73535 48.7633 6.79395C48.6103 6.84928 48.4817 6.93066 48.3775 7.03809C48.2766 7.14225 48.1985 7.26921 48.1432 7.41895C48.0878 7.56868 48.0553 7.73633 48.0455 7.92188L47.777 7.94141C47.777 7.60938 47.8095 7.30176 47.8746 7.01855C47.9397 6.73535 48.0374 6.48633 48.1676 6.27148C48.301 6.05664 48.4671 5.889 48.6656 5.76855C48.8674 5.64811 49.1002 5.58789 49.3639 5.58789C49.4355 5.58789 49.512 5.5944 49.5934 5.60742C49.678 5.62044 49.7415 5.63509 49.7838 5.65137ZM53.7461 9.875V3.46875H54.9277V10.9688H53.8584L53.7461 9.875ZM50.3086 8.38574V8.2832C50.3086 7.88281 50.3558 7.51823 50.4502 7.18945C50.5446 6.85742 50.6813 6.57259 50.8604 6.33496C51.0394 6.09408 51.2575 5.91016 51.5146 5.7832C51.7718 5.65299 52.0615 5.58789 52.3838 5.58789C52.7028 5.58789 52.9827 5.64974 53.2236 5.77344C53.4645 5.89714 53.6696 6.07454 53.8389 6.30566C54.0081 6.53353 54.1432 6.80697 54.2441 7.12598C54.3451 7.44173 54.4167 7.79329 54.459 8.18066V8.50781C54.4167 8.88542 54.3451 9.23047 54.2441 9.54297C54.1432 9.85547 54.0081 10.1257 53.8389 10.3535C53.6696 10.5814 53.4629 10.7572 53.2188 10.8809C52.9779 11.0046 52.6963 11.0664 52.374 11.0664C52.055 11.0664 51.7669 10.9997 51.5098 10.8662C51.2559 10.7327 51.0394 10.5456 50.8604 10.3047C50.6813 10.0638 50.5446 9.7806 50.4502 9.45508C50.3558 9.1263 50.3086 8.76986 50.3086 8.38574ZM51.4854 8.2832V8.38574C51.4854 8.62663 51.5065 8.85124 51.5488 9.05957C51.5944 9.2679 51.6644 9.45182 51.7588 9.61133C51.8532 9.76758 51.9753 9.89128 52.125 9.98242C52.278 10.0703 52.4603 10.1143 52.6719 10.1143C52.9388 10.1143 53.1585 10.0557 53.3311 9.93848C53.5036 9.82129 53.6387 9.66341 53.7363 9.46484C53.8372 9.26302 53.9056 9.03841 53.9414 8.79102V7.90723C53.9219 7.71517 53.8812 7.53613 53.8193 7.37012C53.7607 7.2041 53.681 7.05924 53.5801 6.93555C53.4792 6.80859 53.3538 6.71094 53.2041 6.64258C53.0576 6.57096 52.8835 6.53516 52.6816 6.53516C52.4668 6.53516 52.2845 6.58073 52.1348 6.67188C51.985 6.76302 51.8613 6.88835 51.7637 7.04785C51.6693 7.20736 51.5993 7.3929 51.5537 7.60449C51.5081 7.81608 51.4854 8.04232 51.4854 8.2832Z" fill="white"/>
<defs>
<filter id="filter0_d_443_495" x="0" y="17.0312" width="139" height="32" filterUnits="userSpaceOnUse" color-interpolation-filters="sRGB">
<feFlood flood-opacity="0" result="BackgroundImageFix"/>
<feColorMatrix in="SourceAlpha" type="matrix" values="0 0 0 0 0 0 0 0 0 0 0 0 0 0 0 0 0 0 127 0" result="hardAlpha"/>
<feOffset dy="4"/>
<feGaussianBlur stdDeviation="1.5"/>
<feComposite in2="hardAlpha" operator="out"/>
<feColorMatrix type="matrix" values="0 0 0 0 0.00392157 0 0 0 0 0.945098 0 0 0 0 0.52549 0 0 0 0.12 0"/>
<feBlend mode="normal" in2="BackgroundImageFix" result="effect1_dropShadow_443_495"/>
<feBlend mode="normal" in="SourceGraphic" in2="effect1_dropShadow_443_495" result="shape"/>
</filter>
<filter id="filter1_d_443_495" x="15" y="17" width="124" height="36.0312" filterUnits="userSpaceOnUse" color-interpolation-filters="sRGB">
<feFlood flood-opacity="0" result="BackgroundImageFix"/>
<feColorMatrix in="SourceAlpha" type="matrix" values="0 0 0 0 0 0 0 0 0 0 0 0 0 0 0 0 0 0 127 0" result="hardAlpha"/>
<feOffset dy="4"/>
<feGaussianBlur stdDeviation="1.5"/>
<feComposite in2="hardAlpha" operator="out"/>
<feColorMatrix type="matrix" values="0 0 0 0 0.00392157 0 0 0 0 0.945098 0 0 0 0 0.52549 0 0 0 0.12 0"/>
<feBlend mode="normal" in2="BackgroundImageFix" result="effect1_dropShadow_443_495"/>
<feBlend mode="normal" in="SourceGraphic" in2="effect1_dropShadow_443_495" result="shape"/>
</filter>
<linearGradient id="paint0_linear_443_495" x1="4" y1="18.0312" x2="138.386" y2="36.4412" gradientUnits="userSpaceOnUse">
<stop stop-color="#80E786"/>
<stop offset="1" stop-color="#55C1B3"/>
</linearGradient>
<linearGradient id="paint1_linear_443_495" x1="3.99999" y1="22.0313" x2="138.386" y2="40.4413" gradientUnits="userSpaceOnUse">
<stop stop-color="#55C1B3"/>
<stop offset="1" stop-color="#80E786"/>
</linearGradient>
</defs>
</svg>
