<svg width="96" height="37" viewBox="0 0 96 37" fill="none" xmlns="http://www.w3.org/2000/svg">
<path d="M15.8544 27.4936C15.8274 27.6024 15.7186 27.6561 15.5274 27.6561H11.8906C11.6724 27.6561 11.4781 27.5622 11.3184 27.3721L5.3123 19.7783L3.63753 21.363V27.2513C3.63753 27.5219 3.50178 27.6568 3.22953 27.6568H0.408754C0.135751 27.6568 0 27.5227 0 27.2513V0.409951C0 0.140128 0.135751 0 0.408004 0H3.22803C3.50028 0 3.63678 0.136402 3.63678 0.409951V16.9377L10.8286 9.70989C11.0191 9.52131 11.2096 9.42516 11.4001 9.42516H15.1599C15.3226 9.42516 15.4321 9.49373 15.4869 9.6279C15.5416 9.79114 15.5319 9.91189 15.4404 9.99313L7.84507 17.3014L15.7711 27.0881C15.8807 27.1969 15.9084 27.3319 15.8544 27.4936ZM30.5853 27.6568H27.766C27.466 27.6568 27.3168 27.5219 27.3168 27.2469V26.6774C26.1175 27.5704 24.5792 28.0176 22.6997 28.0176C20.9837 28.0176 19.4987 27.4884 18.2447 26.4344C17.0184 25.3522 16.4072 23.9747 16.4072 22.2924C16.4072 19.6389 18.0677 17.8389 21.3917 16.8922C22.699 16.5121 24.6737 16.1886 27.3168 15.9173C27.3985 14.9163 27.133 14.0636 26.5195 13.3592C25.906 12.6548 25.0135 12.303 23.8427 12.303C22.3172 12.303 20.7647 12.8494 19.1852 13.9279C18.9399 14.0636 18.7629 14.036 18.6534 13.8459L17.1872 11.776C17.0507 11.6128 17.0927 11.4235 17.3094 11.2073C19.4072 9.7725 21.586 9.05471 23.8465 9.05471C25.5902 9.05471 27.0753 9.46094 28.3015 10.2734C30.1 11.4645 30.9985 13.3726 30.9985 15.9978V27.2454C30.9985 27.5174 30.8613 27.6561 30.586 27.6561M27.316 19.1738C24.646 19.4459 22.822 19.7977 21.841 20.2307C20.5059 20.7987 19.9067 21.6097 20.0432 22.6681C20.1242 23.2629 20.4249 23.7429 20.9424 24.1089C21.46 24.4741 22.0592 24.6843 22.7402 24.7372C24.6467 24.8736 26.1775 24.372 27.316 23.2353V19.1738ZM47.693 34.7013C46.2079 36.2308 44.1034 36.997 41.3809 36.997C39.7999 36.997 38.3021 36.6035 36.8861 35.8193C36.5212 35.5836 36.1666 35.3324 35.8233 35.0665C35.3372 34.6928 34.8605 34.3071 34.3938 33.9097C34.2026 33.748 34.1891 33.5452 34.3473 33.3007L36.2718 31.3881C36.3151 31.3465 36.3665 31.3141 36.4229 31.2931C36.4793 31.272 36.5394 31.2628 36.5996 31.2659C36.707 31.268 36.8093 31.3119 36.8846 31.3881C38.4101 32.9035 39.8951 33.6623 41.3389 33.6623C44.6389 33.6623 46.2822 31.9568 46.2822 28.5453V26.4337C45.0027 27.4899 43.3002 28.0183 41.1746 28.0183C38.5331 28.0183 36.4623 27.0307 34.9646 25.054C33.6573 23.3218 33.0026 21.1371 33.0026 18.5164C33.0026 16.0254 33.6296 13.9145 34.8828 12.1853C36.3498 10.102 38.4379 9.05919 41.1349 9.05919C43.1779 9.05919 44.8939 9.58765 46.2822 10.6431V9.83064C46.2822 9.56082 46.4187 9.42442 46.6917 9.42442H49.5117C49.7825 9.42442 49.9242 9.56082 49.9242 9.83138V27.9826C49.9242 30.9312 49.1817 33.1718 47.6967 34.7013M46.2867 15.1898C45.6064 13.4583 44.0254 12.5907 41.5474 12.5907C38.3599 12.5907 36.7683 14.5682 36.7683 18.5201C36.7683 20.7122 37.2994 22.3111 38.3614 23.3113C39.1504 24.097 40.1726 24.489 41.4259 24.489C43.9857 24.489 45.6072 23.6229 46.2829 21.8899L46.2867 15.1898ZM66.9119 34.7065C65.4269 36.2345 63.3231 37 60.5998 37C59.0188 37 57.521 36.6072 56.1043 35.8231C55.8043 35.633 55.4518 35.3833 55.043 35.0717C54.5567 34.6979 54.0798 34.3122 53.6128 33.9149C53.4223 33.7524 53.4088 33.5497 53.567 33.3052L55.4915 31.3926C55.5347 31.351 55.586 31.3187 55.6422 31.2977C55.6985 31.2767 55.7585 31.2674 55.8185 31.2704C55.9262 31.2723 56.0288 31.3162 56.1043 31.3926C57.6298 32.9087 59.1133 33.666 60.5578 33.666C63.8579 33.666 65.5079 31.9606 65.5079 28.5505V26.4382C64.2254 27.4936 62.5281 28.0213 60.4003 28.0213C57.758 28.0213 55.6873 27.0337 54.1895 25.0577C52.8815 23.3255 52.2275 21.1408 52.2275 18.5201C52.2275 16.0299 52.8545 13.9182 54.1063 12.1897C55.5733 10.1057 57.662 9.06291 60.3583 9.06291C62.4021 9.06291 64.1174 9.59138 65.5064 10.6468V9.83437C65.5064 9.56454 65.6429 9.42889 65.9159 9.42889H68.7344C69.0067 9.42889 69.1477 9.56454 69.1477 9.83511V27.9863C69.1477 30.9357 68.4051 33.1755 66.9209 34.7058M65.5109 15.1943C64.8306 13.4621 63.2496 12.5952 60.7716 12.5952C57.584 12.5952 55.991 14.5719 55.991 18.5238C55.991 20.7167 56.522 22.3148 57.5848 23.3143C58.3738 24.1007 59.3961 24.4927 60.6493 24.4927C63.2083 24.4927 64.8306 23.6266 65.5056 21.8944V15.1988L65.5109 15.1943ZM75.399 27.6546H72.5789C72.3067 27.6546 72.1664 27.5204 72.1664 27.2446V0.409951C72.1664 0.140128 72.3029 0 72.5789 0H75.399C75.6705 0 75.8115 0.135656 75.8115 0.409951V27.2521C75.8115 27.5227 75.675 27.662 75.399 27.662M95.9492 19.4183C95.9492 19.6889 95.8119 19.8253 95.5412 19.8253H82.2608C82.4235 21.1513 82.9958 22.2626 83.9768 23.1496C85.0943 24.0977 86.4968 24.5703 88.1851 24.5703C89.6836 24.5703 91.0276 24.1514 92.2306 23.3121C92.4759 23.1481 92.6799 23.1481 92.8434 23.3121L94.7679 25.2612C94.9862 25.4774 94.9862 25.6712 94.7679 25.8292C92.8066 27.2871 90.5319 28.0221 87.9398 28.0221C85.1611 28.0221 82.8458 27.1023 80.9933 25.2612C79.1963 23.4477 78.297 21.1319 78.297 18.3174C78.297 15.6639 79.1812 13.4173 80.9528 11.5763C82.5878 9.89921 84.7118 9.05919 87.3233 9.05919C89.8013 9.05919 91.8849 9.93946 93.5746 11.6985C95.3169 13.5128 96.1217 15.7869 95.9852 18.5209L95.9492 19.4183ZM90.5971 13.4494C89.6716 12.6109 88.5541 12.1897 87.2506 12.1897C86.0251 12.1897 84.9488 12.5967 84.0233 13.4084C83.0978 14.2201 82.5113 15.2763 82.2675 16.5762H92.1144C92.0866 15.3314 91.5819 14.2879 90.6016 13.4494" fill="#20BEFF"/>
</svg>
