<svg width="33" height="34" viewBox="0 0 33 34" fill="none" xmlns="http://www.w3.org/2000/svg">
<path fill-rule="evenodd" clip-rule="evenodd" d="M25.0222 0.84375C29.77 0.84375 32.8496 3.9234 32.8496 8.67121V25.8659C32.8496 30.6137 29.77 33.6934 25.0222 33.6934H7.82746C3.07965 33.6934 0 30.6137 0 25.8659V8.67121C0 3.9234 3.07965 0.84375 7.82746 0.84375H25.0222Z" fill="#2F2F2F"/>
<g clip-path="url(#clip0_1_3941)">
<path d="M16.2085 24.5704C16.2085 26.517 14.6285 28.0953 12.6836 28.0953C10.7387 28.0953 9.15863 26.517 9.15863 24.5704C9.15863 22.6238 10.7387 21.0454 12.6836 21.0454H16.2085V24.5704Z" fill="#0ACF83" stroke="black" stroke-width="0.25"/>
<path d="M9.15863 17.2703C9.15863 15.3255 10.7387 13.7454 12.6836 13.7454H16.2085V20.7953H12.6836C10.7387 20.7953 9.15863 19.2169 9.15863 17.2703Z" fill="#A259FF" stroke="black" stroke-width="0.25"/>
<path d="M9.15863 9.97051C9.15863 8.02566 10.7387 6.44556 12.6836 6.44556H16.2085V13.4955H12.6836C10.7387 13.4955 9.15863 11.9171 9.15863 9.97051Z" fill="#F24E1E" stroke="black" stroke-width="0.25"/>
<path d="M16.4585 6.44556H19.9835C21.9284 6.44556 23.5085 8.02566 23.5085 9.97051C23.5085 11.9172 21.9301 13.4955 19.9835 13.4955H16.4585V6.44556Z" fill="#FF7262" stroke="black" stroke-width="0.25"/>
<path d="M23.5085 17.2703C23.5085 19.217 21.9301 20.7953 19.9835 20.7953C18.0369 20.7953 16.4585 19.217 16.4585 17.2703C16.4585 15.3254 18.0369 13.7454 19.9835 13.7454C21.9301 13.7454 23.5085 15.3254 23.5085 17.2703Z" fill="#1ABCFE" stroke="black" stroke-width="0.25"/>
</g>
<defs>
<clipPath id="clip0_1_3941">
<rect width="14.5998" height="21.8997" fill="white" transform="translate(9.03363 6.32056)"/>
</clipPath>
</defs>
</svg>
