<svg width="33" height="33" viewBox="0 0 33 33" fill="none" xmlns="http://www.w3.org/2000/svg">
<path fill-rule="evenodd" clip-rule="evenodd" d="M25.0224 0C29.7703 0 32.85 3.07969 32.85 7.82755V25.0224C32.85 29.7703 29.7703 32.85 25.0224 32.85H7.82755C3.07969 32.85 0 29.7703 0 25.0224V7.82755C0 3.07969 3.07969 0 7.82755 0H25.0224Z" fill="#23252D"/>
<path d="M16.4236 5.74854C10.3778 5.74854 5.47498 10.6706 5.47498 16.7423C5.47251 19.0467 6.19428 21.2935 7.53828 23.1654C8.88228 25.0372 10.7805 26.4393 12.9648 27.1736C13.5123 27.2749 13.7121 26.9354 13.7121 26.6439C13.7121 26.3824 13.7025 25.6912 13.6971 24.7741C10.6516 25.438 10.0083 23.3 10.0083 23.3C9.51142 22.0298 8.79283 21.6917 8.79283 21.6917C7.79775 21.0101 8.86674 21.0238 8.86674 21.0238C9.96585 21.1018 10.5435 22.1571 10.5435 22.1571C11.5207 23.8366 13.1071 23.352 13.7313 23.0701C13.8298 22.3597 14.1132 21.8751 14.4266 21.6C11.9957 21.3222 9.43888 20.3791 9.43888 16.1675C9.43888 14.9671 9.86593 13.9857 10.5667 13.2164C10.4531 12.9386 10.0781 11.8203 10.6735 10.3078C10.6735 10.3078 11.5933 10.0122 13.6847 11.4343C14.5782 11.1902 15.5001 11.0659 16.4263 11.0648C17.3526 11.0666 18.2745 11.1913 19.1679 11.4357C21.258 10.0136 22.1765 10.3092 22.1765 10.3092C22.7732 11.823 22.3982 12.9399 22.286 13.2178C22.9881 13.987 23.4111 14.9684 23.4111 16.1688C23.4111 20.3914 20.8515 21.3208 18.4124 21.5932C18.8052 21.9326 19.1556 22.6033 19.1556 23.6285C19.1556 25.0985 19.1419 26.2839 19.1419 26.6439C19.1419 26.9381 19.339 27.2803 19.8948 27.1722C22.0769 26.4362 23.9728 25.0335 25.3149 23.1622C26.657 21.2908 27.3776 19.0452 27.375 16.7423C27.375 10.6706 22.4721 5.74854 16.4236 5.74854Z" fill="#808080"/>
</svg>
