<svg width="33" height="34" viewBox="0 0 33 34" fill="none" xmlns="http://www.w3.org/2000/svg">
<path fill-rule="evenodd" clip-rule="evenodd" d="M25.0222 0.791504C29.77 0.791504 32.8496 3.87116 32.8496 8.61896V25.8137C32.8496 30.5615 29.77 33.6411 25.0222 33.6411H7.82746C3.07965 33.6411 0 30.5615 0 25.8137V8.61896C0 3.87116 3.07965 0.791504 7.82746 0.791504H25.0222Z" fill="#2F2F2F"/>
<path d="M21.9813 27.2748C21.9622 27.3532 21.8867 27.3924 21.7549 27.3924H19.2356C19.0841 27.3924 18.953 27.3239 18.8394 27.1865L14.6793 21.6948L13.5191 22.8401V27.0992C13.5191 27.2952 13.4245 27.3931 13.2359 27.3931H11.2831C11.0943 27.3931 11 27.2952 11 27.0992V7.68623C11 7.4909 11.0943 7.39307 11.2831 7.39307H13.2362C13.4248 7.39307 13.5194 7.49123 13.5194 7.68623V19.6394L18.5004 14.4119C18.6325 14.2752 18.7645 14.2063 18.8965 14.2063H21.5007C21.6137 14.2063 21.6889 14.2557 21.727 14.3529C21.7651 14.4705 21.7556 14.5584 21.6984 14.6174L16.434 19.9029L21.9245 26.981C21.9997 27.0594 22.0184 27.1572 21.9813 27.2748Z" fill="#20BEFF"/>
</svg>
