<svg width="33" height="34" viewBox="0 0 33 34" fill="none" xmlns="http://www.w3.org/2000/svg">
<path fill-rule="evenodd" clip-rule="evenodd" d="M25.0222 0.895996C29.77 0.895996 32.8496 3.97565 32.8496 8.72346V25.9181C32.8496 30.666 29.77 33.7456 25.0222 33.7456H7.82746C3.07965 33.7456 0 30.666 0 25.9181V8.72346C0 3.97565 3.07965 0.895996 7.82746 0.895996H25.0222Z" fill="#2F2F2F"/>
<g clip-path="url(#clip0_1_3846)">
<path d="M9.90337 9.87761C10.5531 10.4072 10.7992 10.3698 12.0257 10.2878L23.5888 9.59411C23.8349 9.59411 23.6302 9.34801 23.5475 9.30667L21.6266 7.9187C21.2611 7.63126 20.7689 7.30708 19.8285 7.38517L8.63484 8.20548C8.22468 8.24289 8.14265 8.44829 8.30672 8.61236L9.90337 9.87761ZM10.597 12.5748V24.739C10.597 25.392 10.9219 25.6381 11.6569 25.5968L24.3652 24.8618C25.1002 24.8204 25.1855 24.3729 25.1855 23.84V11.7578C25.1855 11.2242 24.9801 10.9407 24.5292 10.9821L11.2507 11.7578C10.7585 11.7991 10.5977 12.0413 10.5977 12.5715L10.597 12.5748ZM23.1412 13.2238C23.2233 13.5933 23.1412 13.9588 22.7718 14.0035L22.1602 14.1268V23.1056C21.6266 23.3931 21.1384 23.5571 20.7315 23.5571C20.0752 23.5571 19.9112 23.3517 19.4223 22.7401L15.4165 16.4513V22.5354L16.6844 22.8228C16.6844 22.8228 16.6844 23.5578 15.6626 23.5578L12.8427 23.7219C12.7607 23.5578 12.8427 23.1476 13.1302 23.0689L13.8652 22.8635V14.8211L12.8434 14.7391C12.7613 14.3696 12.9667 13.84 13.537 13.7994L16.5617 13.594L20.7315 19.9648V14.3283L19.6684 14.2049C19.5863 13.7574 19.9112 13.4292 20.3213 13.3912L23.1412 13.2238ZM7.69509 7.10233L19.3402 6.24461C20.7689 6.12123 21.1384 6.20326 22.0368 6.85623L25.7557 9.47073C26.3674 9.91829 26.5728 10.0417 26.5728 10.5306V24.8624C26.5728 25.7615 26.2447 26.2911 25.1028 26.3731L11.5742 27.1901C10.7197 27.2315 10.3096 27.1081 9.85809 26.5372L7.12022 22.9823C6.63131 22.3293 6.42656 21.8404 6.42656 21.2701V8.53164C6.42656 7.79664 6.75468 7.18501 7.69443 7.10298L7.69509 7.10233Z" fill="white"/>
</g>
<defs>
<clipPath id="clip0_1_3846">
<rect width="21" height="21" fill="white" transform="translate(6 6.19678)"/>
</clipPath>
</defs>
</svg>
