<svg width="33" height="34" viewBox="0 0 33 34" fill="none" xmlns="http://www.w3.org/2000/svg">
<path fill-rule="evenodd" clip-rule="evenodd" d="M25.0222 0.948242C29.77 0.948242 32.8496 4.02789 32.8496 8.7757V25.9704C32.8496 30.7182 29.77 33.7979 25.0222 33.7979H7.82746C3.07965 33.7979 0 30.7182 0 25.9704V8.7757C0 4.02789 3.07965 0.948242 7.82746 0.948242H25.0222Z" fill="#2F2F2F"/>
<path d="M6 22.0486L11 17.0986L6 12.1487L8.02778 11.4702L12.9444 15.1798L21.1111 7.09863L26 9.17872V25.0185L21.1111 27.0986L12.9444 19.0174L8.02778 22.7271L6 22.0486ZM15.4889 17.0986L21.1111 21.3534V12.8606L15.4889 17.0986Z" fill="#007ACC"/>
</svg>
