<svg width="33" height="24" viewBox="0 0 33 24" fill="none" xmlns="http://www.w3.org/2000/svg">
<path d="M32.2712 4.17277C31.886 2.76177 30.7741 1.65955 29.3506 1.27774C26.7898 0.585449 16.483 0.585449 16.483 0.585449C16.483 0.585449 6.17628 0.606428 3.61546 1.29872C2.192 1.68053 1.08005 2.78275 0.694861 4.19375C-0.0797329 8.70412 -0.380258 15.5767 0.716025 19.9066C1.10121 21.3176 2.21316 22.4199 3.63662 22.8017C6.19744 23.494 16.5042 23.494 16.5042 23.494C16.5042 23.494 26.8109 23.494 29.3718 22.8017C30.7952 22.4199 31.9072 21.3176 32.2924 19.9066C33.1093 15.39 33.3611 8.52161 32.2712 4.17277Z" fill="#FF0000"/>
<path d="M13.2026 16.9488L21.7528 12.0398L13.2026 7.13086V16.9488Z" fill="white"/>
</svg>
